<?xml version="1.0" encoding="UTF-8"?>
<svg version="1.1" xmlns="http://www.w3.org/2000/svg" width="300" height="268">
<path d="M0 0 C99 0 198 0 300 0 C300 88.44 300 176.88 300 268 C201 268 102 268 0 268 C0 179.56 0 91.12 0 0 Z " fill="#FCFDFA" transform="translate(0,0)"/>
<path d="M0 0 C99 0 198 0 300 0 C300 88.44 300 176.88 300 268 C201 268 102 268 0 268 C0 179.56 0 91.12 0 0 Z M50 14 C50 81.98 50 149.96 50 220 C116.66 220 183.32 220 252 220 C252 152.02 252 84.04 252 14 C185.34 14 118.68 14 50 14 Z " fill="#FDFEFD" transform="translate(0,0)"/>
<path d="M0 0 C66.66 0 133.32 0 202 0 C202 67.98 202 135.96 202 206 C135.34 206 68.68 206 0 206 C0 138.02 0 70.04 0 0 Z M7.57627106 7.56008244 C5.44295961 10.8622455 5.44753023 13.74667116 5.49879456 17.55334473 C5.49326016 18.31756445 5.48772576 19.08178418 5.48202366 19.86916208 C5.46840163 22.43198495 5.48339418 24.99383653 5.49829102 27.55664062 C5.49450839 29.39308588 5.48900882 31.22952828 5.48191833 33.06596375 C5.46793905 38.05562672 5.47915087 43.04494583 5.49562955 48.03458977 C5.50946402 53.25243282 5.5030218 58.47025559 5.49949646 63.68811035 C5.49679307 72.45114697 5.51028104 81.21404672 5.53344727 89.97705078 C5.56005779 100.11317966 5.56180457 110.24907966 5.5500589 120.38523149 C5.53928553 130.12958745 5.54546474 139.87386048 5.55961418 149.61820984 C5.5653778 153.76806088 5.56528834 157.91785131 5.56054878 162.06770325 C5.55578194 166.95312609 5.56586856 171.83829781 5.58750343 176.72367287 C5.59307546 178.51837632 5.59353279 180.31310388 5.58855057 182.10780907 C5.58260972 184.55437128 5.59507925 187.00016259 5.61231995 189.44665527 C5.6063099 190.15988276 5.60029986 190.87311025 5.59410769 191.60795069 C5.63132685 194.50476984 5.9022517 196.77738384 7.07152557 199.44033813 C9.93356284 201.7550229 12.72049821 201.55305292 16.24327087 201.50793457 C16.98621841 201.51417453 17.72916596 201.5204145 18.49462706 201.52684355 C20.99144837 201.54283588 23.48730181 201.53014556 25.98413086 201.51757812 C27.77116975 201.52299654 29.55820418 201.53011762 31.3452301 201.53881836 C36.2047811 201.55708937 41.06399327 201.5499683 45.92355037 201.53730202 C51.00393908 201.52719231 56.08429829 201.53656219 61.16468811 201.54284668 C69.69830547 201.55012967 78.23178449 201.54051898 86.76538086 201.52148438 C96.6362597 201.49972137 106.506808 201.50676025 116.37767881 201.52879 C124.84570108 201.54693374 133.31362376 201.54950713 141.78165919 201.53903532 C146.84220044 201.53279385 151.90258628 201.53198256 156.9631176 201.54518127 C161.72136489 201.55672398 166.47918557 201.54874299 171.2373867 201.52560425 C172.98532655 201.52030839 174.7333022 201.52184588 176.48122787 201.53065491 C178.86455414 201.54156 181.24650712 201.52790928 183.62974548 201.50793457 C184.32420035 201.51685746 185.01865521 201.52578034 185.73415416 201.53497362 C188.86232834 201.48399666 190.77960979 201.14179677 193.42847443 199.43754482 C195.54866999 196.14897491 195.55873644 193.28132879 195.5146637 189.49134827 C195.52508199 188.35220235 195.52508199 188.35220235 195.53571075 187.19004339 C195.55401812 184.64340597 195.5437065 182.0976962 195.53344727 179.55102539 C195.54050389 177.72605185 195.54924782 175.90108417 195.55955505 174.0761261 C195.58208802 169.11741209 195.57910015 164.15901666 195.57023358 159.20027089 C195.56512923 155.06244782 195.57241178 150.92468491 195.57970566 146.78686804 C195.59671719 137.02623436 195.5931263 127.26575697 195.57641602 117.50512695 C195.55949286 107.43141052 195.57532912 97.35812733 195.6076389 87.28445822 C195.63431896 78.63890309 195.64161509 69.99348296 195.63312382 61.34789079 C195.62819004 56.18277304 195.63043458 51.01791602 195.65091133 45.85283089 C195.66924356 40.99601245 195.66333987 36.1398181 195.63871193 31.28303337 C195.63369622 29.50003243 195.63721348 27.71698414 195.64986038 25.934021 C195.66575685 23.50050527 195.65087479 21.06905319 195.62818909 18.63563538 C195.64002482 17.92921168 195.65186054 17.22278798 195.66405493 16.49495751 C195.59519743 12.86196212 195.03651191 11.05166509 192.92372894 8.06203461 C189.22283401 5.45188381 187.10146783 5.37381752 182.59214783 5.37181091 C181.4874139 5.36116933 181.4874139 5.36116933 180.36036211 5.35031277 C177.89717821 5.33273691 175.43557321 5.35083376 172.97241211 5.36889648 C171.2047809 5.36375752 169.43715481 5.35647641 167.66954041 5.34721375 C162.87200746 5.32868995 158.07502982 5.34164392 153.27751994 5.36130404 C148.25853874 5.3776812 143.23959297 5.36887907 138.22059631 5.36378479 C129.79305136 5.35926321 121.36572831 5.37513873 112.93823242 5.40307617 C103.19113296 5.43513873 93.44443352 5.43510852 83.69730562 5.4178614 C74.32401185 5.40200593 64.95086492 5.40872289 55.57757759 5.42579842 C51.58679871 5.43267583 47.59613729 5.43162942 43.60536003 5.42425346 C38.90780326 5.41660056 34.2107026 5.42868408 29.51322365 5.45610237 C27.78786447 5.46299737 26.06246279 5.46307226 24.3371048 5.45588684 C21.98451459 5.44721714 19.63334015 5.46310402 17.28086853 5.4853363 C15.9636679 5.48814322 14.64646727 5.49095015 13.28935146 5.49384212 C9.99159636 5.77284874 9.99159636 5.77284874 7.57627106 7.56008244 Z " fill="#7BC23D" transform="translate(50,14)"/>
<path d="M0 0 C0.33 0 0.66 0 1 0 C1.89336075 14.41015282 2.30123978 28.81366881 2.55761719 43.24829102 C2.62432886 46.90075498 2.70257538 50.55285488 2.78125 54.20507812 C3.10401047 70.84736221 2.77054812 87.37379441 2 104 C2.99 104.33 3.98 104.66 5 105 C5 135.36 5 165.72 5 197 C-59.68 197 -124.36 197 -191 197 C-190.67 196.01 -190.34 195.02 -190 194 C-188.87830839 193.99365209 -188.87830839 193.99365209 -187.73395634 193.98717594 C-169.3712538 193.88297615 -151.0085831 193.77422278 -132.64593601 193.66066074 C-123.76518929 193.60584366 -114.88443866 193.55245833 -106.00366211 193.50268555 C-98.24538678 193.45919998 -90.4871349 193.41278195 -82.72889656 193.36312145 C-78.63716479 193.33702531 -74.5454361 193.31220698 -70.45367622 193.29092598 C-59.9684743 193.23562278 -49.48435371 193.14559359 -39 193 C-38.22680971 192.98974084 -37.45361941 192.97948169 -36.65699911 192.96891165 C-31.98115834 192.90490405 -27.30620875 192.82258101 -22.63115108 192.71546924 C-21.17153641 192.68392902 -19.71180776 192.65724584 -18.25201142 192.63569558 C-16.24679671 192.60473485 -14.24193154 192.55317996 -12.23716736 192.50059509 C-11.10110518 192.47642486 -9.96504301 192.45225462 -8.79455471 192.42735195 C-6.03010936 192.20610612 -6.03010936 192.20610612 -4.17267704 190.78121281 C-1.36508489 186.51668052 -1.83807249 181.34765041 -1.80381775 176.41337585 C-1.79028545 175.27990722 -1.79028545 175.27990722 -1.77647978 174.12354022 C-1.74745457 171.5963033 -1.72518038 169.06905259 -1.70288086 166.54174805 C-1.6834354 164.72822131 -1.66357335 162.91469899 -1.64332581 161.10118103 C-1.58956528 156.18018354 -1.54163742 151.25914442 -1.49474788 146.33807731 C-1.44474821 141.19440952 -1.38939657 136.05079941 -1.33460999 130.90718079 C-1.23168892 121.16799267 -1.13358878 111.42876218 -1.03721577 101.68950731 C-0.92725999 90.60129228 -0.81193724 79.51313511 -0.69616115 68.42497957 C-0.45813084 45.61671245 -0.22684859 22.80838088 0 0 Z " fill="#4AAC0D" transform="translate(247,22)"/>
<path d="M0 0 C61.05 0 122.1 0 185 0 C185 36.96 185 73.92 185 112 C184.01 111.67 183.02 111.34 182 111 C182.00523682 110.41476563 182.01047363 109.82953125 182.01586914 109.2265625 C182.22157267 81.48002008 181.54541322 53.73956707 181 26 C180.25142412 64.9355736 179.80028175 103.87157709 179.4375 142.8125 C179.4263982 144.00389587 179.4152964 145.19529175 179.40385818 146.42279053 C179.26572223 161.28182907 179.13119021 176.14089857 179 191 C178.67 191 178.34 191 178 191 C177.99853344 190.07086163 177.99706688 189.14172325 177.99555588 188.18442917 C177.95898587 165.59247557 177.8995692 143.00067051 177.81609726 120.40884018 C177.77626183 109.48365782 177.74389224 98.55854797 177.72900391 87.63330078 C177.71601071 78.11255718 177.68910588 68.59197281 177.64538693 59.07131886 C177.62271955 54.02862623 177.60709247 48.98613037 177.60811615 43.94338226 C177.60885965 39.19910265 177.59103404 34.45525889 177.55883217 29.711092 C177.55029822 27.96800536 177.54860682 26.22487003 177.55419731 24.48177147 C177.5608065 22.1048269 177.54299274 19.72928162 177.51898193 17.35247803 C177.52674235 16.65986775 177.53450277 15.96725748 177.54249835 15.25365901 C177.48109917 11.8292835 177.25311433 10.29073627 174.96756363 7.66547012 C174.31826763 7.11586498 173.66897163 6.56625984 173 6 C173 5.34 173 4.68 173 4 C119.54 4 66.08 4 11 4 C11 3.34 11 2.68 11 2 C8.02148438 2.09765625 8.02148438 2.09765625 5.04296875 2.1953125 C3 2 3 2 0 0 Z " fill="#49AF16" transform="translate(67,15)"/>
<path d="M0 0 C3.02093215 3.02093215 2.46676834 6.56372072 2.625 10.625 C2.66367188 11.42679688 2.70234375 12.22859375 2.7421875 13.0546875 C2.83653931 15.03607556 2.91936215 17.01800645 3 19 C8.32228165 21.95682314 12.87507233 23.59405122 18.8984375 24.5078125 C21 25 21 25 23 27 C22.63723355 29.82957829 21.90305236 32.29084291 21 35 C22.32 35.66 23.64 36.32 25 37 C23.46535784 40.45294486 21.37011726 43.07220809 19 46 C15.76494609 50.2235426 14.3250516 52.65440867 15 58 C16.93428693 60.47197073 16.93428693 60.47197073 19.5 62.5625 C23.90435165 66.37552666 23.90435165 66.37552666 24.40625 69.65234375 C24 72 24 72 22 74 C19.73046875 74.4921875 19.73046875 74.4921875 17 74 C14.88033293 72.08262481 13.13407266 70.29106056 11.3125 68.125 C10.82716797 67.56941406 10.34183594 67.01382813 9.84179688 66.44140625 C8.55404634 64.96715391 7.27644726 63.4840498 6 62 C3.52112856 59.52112856 2.70056622 59.73086262 -0.71875 59.65625 C-1.65074219 59.62660156 -2.58273438 59.59695312 -3.54296875 59.56640625 C-4.51878906 59.54449219 -5.49460938 59.52257812 -6.5 59.5 C-8.42730111 59.45671847 -10.35443768 59.40504555 -12.28125 59.34375 C-13.13783203 59.32505859 -13.99441406 59.30636719 -14.87695312 59.28710938 C-17 59 -17 59 -19 57 C-19.3125 54.5 -19.3125 54.5 -19 52 C-15.85604599 49.90403066 -15.43834852 49.78622976 -11.9375 50.0078125 C-2.02399642 50.54564708 -2.02399642 50.54564708 6.62890625 46.4453125 C10.80751824 42.20696813 14.05402602 37.68014026 16 32 C15.32453125 32.02320313 14.6490625 32.04640625 13.953125 32.0703125 C13.06109375 32.08835938 12.1690625 32.10640625 11.25 32.125 C9.92742187 32.15980469 9.92742187 32.15980469 8.578125 32.1953125 C5.85430145 31.98896223 4.3798705 31.26197726 2 30 C-2.86982305 30 -5.65397754 31.29100511 -9.5 34.0625 C-13.6467026 37.03051659 -15.96602097 37.73412194 -21 37 C-22 36 -22 36 -22.375 33.1875 C-22 30 -22 30 -19.9375 27.875 C-10.73333333 22 -10.73333333 22 -8 22 C-8.01571045 21.44014404 -8.0314209 20.88028809 -8.04760742 20.3034668 C-8.10999848 17.7649141 -8.14900218 15.22652271 -8.1875 12.6875 C-8.21263672 11.80642578 -8.23777344 10.92535156 -8.26367188 10.01757812 C-8.27333984 9.17001953 -8.28300781 8.32246094 -8.29296875 7.44921875 C-8.31653442 6.27879028 -8.31653442 6.27879028 -8.34057617 5.0847168 C-7.55777816 0.29309514 -4.41131445 -0.56555314 0 0 Z " fill="#58B31B" transform="translate(184,40)"/>
<path d="M0 0 C1.63121033 1.11009216 1.63121033 1.11009216 3 3 C3.38526917 5.92884827 3.38526917 5.92884827 3.40063477 9.55102539 C3.40761383 10.21149368 3.4145929 10.87196198 3.42178345 11.55244446 C3.44177023 13.73431133 3.44126001 15.91570596 3.44140625 18.09765625 C3.45317496 19.61316712 3.46653794 21.12866638 3.48143005 22.64414978 C3.5176381 26.63330192 3.53782568 30.62235114 3.55297852 34.6116333 C3.57780007 41.00079695 3.61734121 47.38973319 3.67487907 53.77868462 C3.69124693 56.01340374 3.6949891 58.24790951 3.69789124 60.48268127 C3.7076643 61.84791436 3.71792705 63.21314405 3.72875977 64.57836914 C3.73303482 65.772892 3.73730988 66.96741486 3.74171448 68.19813538 C3.71166928 71.13781131 3.71166928 71.13781131 6 73 C8.78214334 73.33929962 8.78214334 73.33929962 12.03125 73.34375 C13.23394531 73.37339844 14.43664062 73.40304688 15.67578125 73.43359375 C16.93777344 73.45550781 18.19976562 73.47742188 19.5 73.5 C21.98975274 73.5432337 24.47937821 73.59488285 26.96875 73.65625 C28.63067383 73.68428711 28.63067383 73.68428711 30.32617188 73.71289062 C33 74 33 74 35 76 C35.25 78.5 35.25 78.5 35 81 C32.08178936 83.91821064 29.01707472 83.32450422 25.10546875 83.3359375 C23.92891472 83.3459227 23.92891472 83.3459227 22.72859192 83.35610962 C21.06672513 83.36624415 19.40481758 83.37092639 17.74291992 83.37060547 C15.20748092 83.37496564 12.67380114 83.41123744 10.13867188 83.44921875 C8.52344345 83.4550895 6.90820675 83.45905717 5.29296875 83.4609375 C4.53759323 83.47530853 3.78221771 83.48967957 3.00395203 83.50448608 C-0.41962936 83.47497807 -2.71934546 83.1622889 -5.70158386 81.43780518 C-8.72093191 78.23534667 -8.69426281 75.69499408 -8.61523438 71.50927734 C-8.62078339 70.76088089 -8.6263324 70.01248444 -8.63204956 69.2414093 C-8.64384331 66.77226368 -8.61958057 64.30495416 -8.59375 61.8359375 C-8.5920391 60.12008752 -8.59210437 58.40423493 -8.59387207 56.68838501 C-8.59221913 53.09538717 -8.57352295 49.50301352 -8.54199219 45.91015625 C-8.50225443 41.29843666 -8.49795382 36.68753242 -8.50545502 32.07567406 C-8.5085197 28.53437797 -8.49642319 24.9932662 -8.47932434 21.45201492 C-8.47228094 19.75111674 -8.46917143 18.05019768 -8.47001648 16.34928513 C-8.46822467 13.97644788 -8.44689949 11.60460034 -8.41992188 9.23193359 C-8.42285248 8.52540146 -8.42578308 7.81886932 -8.42880249 7.09092712 C-8.39440918 5.1368103 -8.39440918 5.1368103 -8 2 C-4.76746204 -0.15502531 -3.74849077 -0.46856135 0 0 Z " fill="#52B018" transform="translate(153,80)"/>
<path d="M0 0 C0.72614502 0.00008057 1.45229004 0.00016113 2.20043945 0.00024414 C4.4150722 -0.00194063 6.62920561 -0.02008844 8.84375 -0.0390625 C10.245441 -0.04199669 11.64713437 -0.04398131 13.04882812 -0.04492188 C14.33072021 -0.04903076 15.6126123 -0.05313965 16.93334961 -0.05737305 C19.99023438 0.18554688 19.99023438 0.18554688 21.99023438 2.18554688 C22.24023438 5.18554688 22.24023438 5.18554688 21.99023438 8.18554688 C19.99023438 10.18554688 19.99023438 10.18554688 17.56005859 10.41259766 C16.56506348 10.40212402 15.57006836 10.39165039 14.54492188 10.38085938 C13.46855469 10.37441406 12.3921875 10.36796875 11.28320312 10.36132812 C10.15527344 10.34457031 9.02734375 10.3278125 7.86523438 10.31054688 C6.72957031 10.30152344 5.59390625 10.2925 4.42382812 10.28320312 C1.61242139 10.25957786 -1.19856861 10.226637 -4.00976562 10.18554688 C-3.67976563 11.50554687 -3.34976563 12.82554687 -3.00976562 14.18554688 C-1.03943359 14.24162109 -1.03943359 14.24162109 0.97070312 14.29882812 C2.70640802 14.36450345 4.44208384 14.43095025 6.17773438 14.49804688 C7.47420898 14.53188477 7.47420898 14.53188477 8.796875 14.56640625 C13.61460026 14.76945214 17.11385251 15.01669879 20.99023438 18.18554688 C23.31986881 21.67999853 23.34648135 23.3541425 23.42773438 27.49804688 C23.48767578 29.16287109 23.48767578 29.16287109 23.54882812 30.86132812 C22.85627117 34.98276844 21.20647655 37.59010017 17.99023438 40.18554688 C15.14808425 40.75386012 13.17402846 40.94277289 10.35351562 40.84179688 C9.63286423 40.83805054 8.91221283 40.8343042 8.16972351 40.83044434 C6.65421904 40.8170527 5.13878084 40.78931966 3.6237793 40.74804688 C1.29931771 40.68545487 -1.02243361 40.66607637 -3.34765625 40.65429688 C-4.82229885 40.63596553 -6.29691381 40.61521671 -7.77148438 40.59179688 C-8.46731125 40.58329712 -9.16313812 40.57479736 -9.88005066 40.56604004 C-14.77524112 40.42007138 -14.77524112 40.42007138 -17.00976562 38.18554688 C-17.19726562 35.12304688 -17.19726562 35.12304688 -17.00976562 32.18554688 C-15.17756916 30.35335041 -12.25262822 30.94653359 -9.78710938 30.86914062 C-8.52705078 30.82724609 -7.26699219 30.78535156 -5.96875 30.7421875 C-4.62825827 30.70237091 -3.28776343 30.66265874 -1.94726562 30.62304688 C-0.6028504 30.57986645 0.74155097 30.53625232 2.0859375 30.4921875 C5.38725778 30.3856933 8.68865673 30.28368227 11.99023438 30.18554688 C12.32023437 28.20554688 12.65023437 26.22554687 12.99023438 24.18554688 C12.35520996 24.20649414 11.72018555 24.22744141 11.06591797 24.24902344 C8.16585361 24.33259268 5.26604322 24.38433461 2.36523438 24.43554688 C1.36621094 24.4690625 0.3671875 24.50257813 -0.66210938 24.53710938 C-6.82025251 24.61867418 -10.31834076 24.28485016 -15.00976562 20.18554688 C-17.66799325 17.52731925 -17.36957134 16.07952147 -17.44726562 12.37304688 C-17.36759776 5.72874705 -17.36759776 5.72874705 -14.57226562 2.99804688 C-13.72664063 2.39992188 -12.88101563 1.80179687 -12.00976562 1.18554688 C-9.53488851 -1.28933024 -3.46895442 0.01217455 0 0 Z " fill="#53B01E" transform="translate(118.009765625,122.814453125)"/>
<path d="M0 0 C1.32 0 2.64 0 4 0 C4.19573608 1.43640171 4.38127816 2.87419504 4.5625 4.3125 C4.66691406 5.11300781 4.77132812 5.91351563 4.87890625 6.73828125 C5 9 5 9 4 12 C4.99 11.67 5.98 11.34 7 11 C7.28875 10.236875 7.5775 9.47375 7.875 8.6875 C9.32882263 5.21447926 10.77944292 3.93233425 14 2 C17.8125 1.75 17.8125 1.75 21 2 C20.70179167 5.57849992 20.25754642 6.76226484 17.5625 9.25 C15 11 15 11 13 12 C12.67 12.99 12.34 13.98 12 15 C18.59045377 11.98475531 18.59045377 11.98475531 23.25 6.6875 C24.11625 5.3571875 24.11625 5.3571875 25 4 C27.625 3.625 27.625 3.625 30 4 C32.6465335 4 34.5808163 3.01860366 37 2 C38.06351675 5.38391693 38.21442982 6.5804634 36.5625 9.8125 C36.046875 10.534375 35.53125 11.25625 35 12 C40.15131962 8.8852486 44.24175894 5.51648212 47 0 C48.32 0 49.64 0 51 0 C52.17664871 3.52994613 52.19850603 6.29455413 52 10 C51.34 10.99 50.68 11.98 50 13 C51.98264795 12.34410262 51.98264795 12.34410262 54 11 C54.309375 10.21625 54.61875 9.4325 54.9375 8.625 C56.32507526 5.19687288 57.86417435 3.92425665 61 2 C64.3125 1.75 64.3125 1.75 67 2 C68.125 8.75 68.125 8.75 67 11 C67.66 11 68.32 11 69 11 C69 11.99 69 12.98 69 14 C68.05125 14.45375 67.1025 14.9075 66.125 15.375 C62.99686321 16.80238254 62.99686321 16.80238254 61 19 C58.5 18.875 58.5 18.875 56 18 C54.6875 15.9375 54.6875 15.9375 54 14 C53.32904297 14.54140625 53.32904297 14.54140625 52.64453125 15.09375 C47.72799471 18.86763733 47.72799471 18.86763733 44.25 19.5 C41.58957375 18.90879417 40.59819177 18.18699927 39 16 C39 15.34 39 14.68 39 14 C37.63875 15.2375 37.63875 15.2375 36.25 16.5 C33.46375503 19.03294997 33.12741739 19 29 19 C28.67 17.35 28.34 15.7 28 14 C27.566875 14.66 27.13375 15.32 26.6875 16 C26.130625 16.66 25.57375 17.32 25 18 C24.01 18 23.02 18 22 18 C21.34 17.01 20.68 16.02 20 15 C19.29875 15.66 18.5975 16.32 17.875 17 C14.54170381 19.31881474 12.97357645 19.52981019 9 19 C8.34 18.34 7.68 17.68 7 17 C7 16.01 7 15.02 7 14 C6.55269531 14.3609375 6.10539062 14.721875 5.64453125 15.09375 C2.87746278 17.21772579 0.76277228 18.84034999 -2.6875 19.5625 C-5.86969648 18.78845221 -7.12511087 17.66811145 -9 15 C-9.20738628 11.16335383 -7.44867702 9.15985033 -5.0625 6.375 C-4.53785156 5.80523437 -4.01320313 5.23546875 -3.47265625 4.6484375 C-1.80400335 2.85839375 -1.80400335 2.85839375 0 0 Z " fill="#488722" transform="translate(60,236)"/>
<path d="M0 0 C0.99 0 1.98 0 3 0 C2.70905732 5.52791087 0.23350296 9.04646182 -2.6328125 13.5859375 C-4.21183963 16.37404826 -4.83171692 18.80262147 -5 22 C-4.38125 21.505 -3.7625 21.01 -3.125 20.5 C-1 19 -1 19 1 19 C1.2475 18.2575 1.495 17.515 1.75 16.75 C3.10465039 13.76976913 4.5101541 12.10080748 7 10 C7.66 10 8.32 10 9 10 C9 8.35 9 6.7 9 5 C10.32 4.67 11.64 4.34 13 4 C13.495 5.98 13.495 5.98 14 8 C18.05085679 7.75368443 18.05085679 7.75368443 22 7 C23.5899433 5.07935207 23.5899433 5.07935207 24 3 C25.32 3.33 26.64 3.66 28 4 C27.34 6.64 26.68 9.28 26 12 C24.35 12.33 22.7 12.66 21 13 C20.01 15.97 19.02 18.94 18 22 C18.78375 21.505 19.5675 21.01 20.375 20.5 C23 19 23 19 25 19 C25.226875 18.2575 25.45375 17.515 25.6875 16.75 C27.30329186 13.36453133 28.80935492 11.95789585 32 10 C35.3125 9.75 35.3125 9.75 38 10 C39.125 16.75 39.125 16.75 38 19 C38.66 19 39.32 19 40 19 C40 19.99 40 20.98 40 22 C39.05125 22.45375 38.1025 22.9075 37.125 23.375 C33.99686321 24.80238254 33.99686321 24.80238254 32 27 C29.5 26.875 29.5 26.875 27 26 C25.84375 23.9453125 25.84375 23.9453125 25 22 C24.46890625 22.44472656 23.9378125 22.88945312 23.390625 23.34765625 C22.33101562 24.19650391 22.33101562 24.19650391 21.25 25.0625 C20.55390625 25.63097656 19.8578125 26.19945312 19.140625 26.78515625 C17 28 17 28 14.734375 27.68359375 C14.16203125 27.45800781 13.5896875 27.23242188 13 27 C13 25.35 13 23.7 13 22 C12.34 22 11.68 22 11 22 C10.67 22.99 10.34 23.98 10 25 C7 27 7 27 4.4375 26.8125 C2 26 2 26 0 23 C-0.556875 23.66 -1.11375 24.32 -1.6875 25 C-4 27 -4 27 -6.75 27.25 C-7.4925 27.1675 -8.235 27.085 -9 27 C-9 25.35 -9 23.7 -9 22 C-9.66 22 -10.32 22 -11 22 C-11.33 22.99 -11.66 23.98 -12 25 C-13.65 25.33 -15.3 25.66 -17 26 C-19.399545 22.40068251 -19.81480111 21.23696577 -19 17 C-15.74816797 12.99155359 -12.69106486 10.21138311 -7.5 9.5625 C-6.675 9.706875 -5.85 9.85125 -5 10 C-4.731875 9.0925 -4.46375 8.185 -4.1875 7.25 C-3.09365038 4.25630631 -2.19576514 2.28359575 0 0 Z " fill="#43841C" transform="translate(213,228)"/>
<path d="M0 0 C1.9375 1.25 1.9375 1.25 3 3 C2.88671875 4.86328125 2.88671875 4.86328125 2 7 C-0.2578125 8.96484375 -0.2578125 8.96484375 -3.125 10.9375 C-4.05570313 11.58589844 -4.98640625 12.23429687 -5.9453125 12.90234375 C-9 15 -9 15 -10.90014648 16.046875 C-14.66966645 18.26955089 -14.66966645 18.26955089 -16.61621094 22.03588867 C-16.84180378 24.42375316 -16.8721478 26.7275432 -16.8125 29.125 C-16.81122275 30.73178352 -16.81742473 32.33859487 -16.83203125 33.9453125 C-16.81889893 34.65187988 -16.8057666 35.35844727 -16.79223633 36.08642578 C-17 38 -17 38 -19 41 C-24.13576648 41.65562976 -24.13576648 41.65562976 -26.67700195 39.7277832 C-28.29928999 37.6091391 -28.32361421 36.6173651 -28.23046875 33.98046875 C-28.22116333 32.821521 -28.22116333 32.821521 -28.21166992 31.63916016 C-28.20369385 30.8301123 -28.19571777 30.02106445 -28.1875 29.1875 C-28.21046587 23.06288767 -28.21046587 23.06288767 -30.625 17.62109375 C-32.68906114 16.12386758 -34.67778507 15.04435992 -37 14 C-38.1385494 13.27073306 -39.26540423 12.52260742 -40.375 11.75 C-41.24125 11.1725 -42.1075 10.595 -43 10 C-45 8 -45 8 -45.1875 5.4375 C-45 3 -45 3 -44 2 C-37.33655583 1.33034866 -34.01529599 3.46535486 -28.71875 7.24414062 C-26.21127338 8.93878691 -24.5270432 10.00080959 -21.45703125 9.99609375 C-18.34812063 8.73572458 -15.97697227 7.0356132 -13.3125 5 C-6.06132386 -0.49480195 -6.06132386 -0.49480195 0 0 Z " fill="#55B119" transform="translate(173,31)"/>
<path d="M0 0 C2 2 2 2 2.17602539 4.04370117 C2.15016357 4.86845947 2.12430176 5.69321777 2.09765625 6.54296875 C1.57325908 16.68294318 1.57325908 16.68294318 4.95703125 25.83984375 C7.23903621 27.52461962 9.4573128 28.75988238 12 30 C13.8046875 31.484375 13.8046875 31.484375 15 33 C14.57894737 37.42105263 14.57894737 37.42105263 13 39 C8.73403631 39.46357847 6.64409386 39.43648632 3.04296875 36.99609375 C2.10066406 36.15175781 1.15835938 35.30742188 0.1875 34.4375 C-2.63257349 32.10326359 -5.01137829 30.16216241 -8.71484375 29.5546875 C-11.26040504 29.81355814 -13.54454338 30.28659031 -16 31 C-25.62711864 33.40677966 -25.62711864 33.40677966 -30 33 C-30.99 32.34 -31.98 31.68 -33 31 C-33.1875 28.375 -33.1875 28.375 -33 26 C-31.35 25.67 -29.7 25.34 -28 25 C-28 24.34 -28 23.68 -28 23 C-27.21496094 22.87882812 -26.42992188 22.75765625 -25.62109375 22.6328125 C-24.57050781 22.46523438 -23.51992187 22.29765625 -22.4375 22.125 C-21.40496094 21.96257813 -20.37242188 21.80015625 -19.30859375 21.6328125 C-15.77877254 20.95768731 -12.44012301 20.03247071 -9 19 C-9.05220703 17.19402344 -9.05220703 17.19402344 -9.10546875 15.3515625 C-9.1336028 13.77605558 -9.16090337 12.20053362 -9.1875 10.625 C-9.21263672 9.8309375 -9.23777344 9.036875 -9.26367188 8.21875 C-9.29004405 6.14413852 -9.15486462 4.06899135 -9 2 C-5.54754176 -0.30163882 -4.05261287 -0.34490322 0 0 Z " fill="#54AF16" transform="translate(126,41)"/>
<path d="M0 0 C3.73231156 -0.36942822 5.47953292 -0.3662836 8.59765625 1.828125 C9.41105469 2.62734375 10.22445312 3.4265625 11.0625 4.25 C12.70439121 5.83742088 14.3502033 7.42079682 16 9 C16.69609375 9.74507812 17.3921875 10.49015625 18.109375 11.2578125 C22.59005561 13.95833081 27.05160819 13.59847506 32.1875 13.625 C34.18111465 13.65044499 36.1746483 13.68389611 38.16796875 13.7265625 C39.04735107 13.73252441 39.9267334 13.73848633 40.83276367 13.74462891 C43 14 43 14 45 16 C44.44444444 20.55555556 44.44444444 20.55555556 43 22 C41.61302761 21.97488455 40.22697625 21.89398303 38.84375 21.7890625 C29.50656569 21.0535434 29.50656569 21.0535434 21.22216797 24.46679688 C17.98676748 28.56489793 16.09068344 33.25273384 14 38 C12.4765625 39.95703125 12.4765625 39.95703125 11 41 C7.9375 41.3125 7.9375 41.3125 5 41 C3 39 3 39 2.59375 36.68359375 C3.28864938 32.0932488 6.81592334 29.7286302 10.03125 26.59765625 C12.2176826 24.12155503 12.2176826 24.12155503 12.546875 20.9375 C11.85314923 17.21120157 10.6982737 16.25332144 7.75 13.9375 C6.93273437 13.25945312 6.11546875 12.58140625 5.2734375 11.8828125 C4.52320312 11.26148437 3.77296875 10.64015625 3 10 C0.375 7.3125 0.375 7.3125 -1 5 C-0.75 2.1875 -0.75 2.1875 0 0 Z " fill="#52AF18" transform="translate(92,77)"/>
<path d="M0 0 C0.33 0 0.66 0 1 0 C1.33 3.63 1.66 7.26 2 11 C2.33 11 2.66 11 3 11 C3.9144225 26.64290411 4.13392289 42.22752272 4.09765625 57.89453125 C4.09578552 60.30832388 4.09436472 62.72211689 4.09336853 65.13591003 C4.08959488 71.41402276 4.07981018 77.69211145 4.06866455 83.97021484 C4.05833808 90.40657222 4.05384712 96.84293356 4.04882812 103.27929688 C4.03818198 115.852875 4.02116948 128.42643548 4 141 C2 140 2 140 1.40234375 138.3203125 C-0.73913443 128.20677688 -1.1488741 118.15565713 -1.12939453 107.84326172 C-1.13114685 106.68258682 -1.13289917 105.52191193 -1.13470459 104.32606506 C-1.13907149 100.52725691 -1.13620536 96.72849605 -1.1328125 92.9296875 C-1.13348656 90.27979475 -1.13445597 87.62990339 -1.13571167 84.98001099 C-1.13752268 79.44760633 -1.13515254 73.91521511 -1.13037109 68.3828125 C-1.12490355 61.98251655 -1.12671337 55.58225234 -1.1321975 49.18195713 C-1.13727147 43.01337122 -1.13674931 36.84479943 -1.13381577 30.67621231 C-1.13314689 28.05341716 -1.13397354 25.4306212 -1.13629532 22.807827 C-1.13881866 19.15945999 -1.13498705 15.5111553 -1.12939453 11.86279297 C-1.13243088 10.2250013 -1.13243088 10.2250013 -1.13552856 8.55412292 C-1.13270874 7.56736069 -1.12988892 6.58059845 -1.12698364 5.56393433 C-1.12660662 4.7015962 -1.12622959 3.83925808 -1.12584114 2.9507885 C-1 1 -1 1 0 0 Z " fill="#4CAC12" transform="translate(51,52)"/>
<path d="M0 0 C0.33 0 0.66 0 1 0 C1.04898438 0.68964844 1.09796875 1.37929687 1.1484375 2.08984375 C1.32689252 12.16483865 1.32689252 12.16483865 5 21 C5.20384436 24.5521767 5.34662578 28.09747543 5.4296875 31.65429688 C5.460625 32.40388672 5.4915625 33.15347656 5.5234375 33.92578125 C5.54325684 34.61067627 5.56307617 35.29557129 5.58349609 36.0012207 C6.15095703 38.72443448 7.05977489 39.99951651 9 42 C11.78285793 42.60872745 11.78285793 42.60872745 15.01737976 42.51898193 C16.27521271 42.53289474 17.53304565 42.54680756 18.82899475 42.56114197 C20.22543464 42.55642871 21.62187329 42.55133473 23.01831055 42.54589844 C24.48672584 42.55463112 25.95513161 42.56511584 27.42352295 42.57722473 C31.41296285 42.60514316 35.40209316 42.60848815 39.39161658 42.60750484 C43.55971741 42.61062896 47.72767776 42.63623665 51.89570618 42.65948486 C59.78982349 42.70008697 67.68385811 42.72039542 75.57806379 42.73345876 C84.56473557 42.74931459 93.55126635 42.78772417 102.53785646 42.82805204 C121.02519309 42.91050856 139.51251647 42.96456468 158 43 C158 43.33 158 43.66 158 44 C108.17 44.33 58.34 44.66 7 45 C6.67 45.66 6.34 46.32 6 47 C70.68 47 135.36 47 202 47 C202 47.33 202 47.66 202 48 C135.34 48 68.68 48 0 48 C0 32.16 0 16.32 0 0 Z " fill="#64B32D" transform="translate(50,172)"/>
<path d="M0 0 C4.3422329 -0.06896488 8.68255762 -0.12866492 13.02490234 -0.16479492 C14.50120491 -0.17985923 15.97746288 -0.20031482 17.45361328 -0.22631836 C19.57856258 -0.26280739 21.70291901 -0.27974933 23.828125 -0.29296875 C25.7447998 -0.31653442 25.7447998 -0.31653442 27.70019531 -0.34057617 C31.18693731 0.01929399 32.5707823 0.52587994 35 3 C35.53125 5.12109375 35.53125 5.12109375 35.5 7.4375 C35.5103125 8.19933594 35.520625 8.96117187 35.53125 9.74609375 C34.78288333 12.9211494 33.56587062 13.99881805 31 16 C27.70019531 16.45410156 27.70019531 16.45410156 23.828125 16.390625 C22.8044986 16.38213531 22.8044986 16.38213531 21.76019287 16.37347412 C19.58940238 16.35115636 17.42028794 16.30097508 15.25 16.25 C13.7747635 16.22992876 12.29950101 16.21167907 10.82421875 16.1953125 C7.21498728 16.15471372 3.60935993 16.0764335 0 16 C0 10.72 0 5.44 0 0 Z " fill="#66B221" transform="translate(101,167)"/>
<path d="M0 0 C-0.34013015 5.44208234 -3.70296528 8.93668198 -7 13 C-5.02 12.67 -3.04 12.34 -1 12 C-0.6875 14.6875 -0.6875 14.6875 -1 18 C-3.5 20.875 -3.5 20.875 -6 23 C-3.04199472 22.29231642 -3.04199472 22.29231642 0 21 C0.67990001 19.67336584 1.34517589 18.33918916 2 17 C5.48736091 13.57547442 8.5849318 11.15161445 13.5 10.625 C14.325 10.74875 15.15 10.8725 16 11 C16.2954439 16.02254631 15.98514628 18.89542386 13 23 C14.98 22.34 16.96 21.68 19 21 C18.6684371 24.0945871 17.97117406 25.02804686 15.6875 27.25 C13 29 13 29 9 29 C9 27.68 9 26.36 9 25 C8.34 25 7.68 25 7 25 C6.34 26.32 5.68 27.64 5 29 C3.68 28.67 2.36 28.34 1 28 C0.67 26.68 0.34 25.36 0 24 C-0.66 24 -1.32 24 -2 24 C-2.20625 24.639375 -2.4125 25.27875 -2.625 25.9375 C-4 28 -4 28 -7.125 28.75 C-8.548125 28.87375 -8.548125 28.87375 -10 29 C-10.66 27.68 -11.32 26.36 -12 25 C-12.433125 25.495 -12.86625 25.99 -13.3125 26.5 C-15 28 -15 28 -18 28 C-19.09571327 18.45164154 -14.98840501 13.11380146 -9.26953125 5.78125 C-4.47156762 0 -4.47156762 0 0 0 Z " fill="#45851E" transform="translate(161,226)"/>
<path d="M0 0 C3.63 0 7.26 0 11 0 C11.33 35.31 11.66 70.62 12 107 C11.01 106.67 10.02 106.34 9 106 C9.00523682 105.41476563 9.01047363 104.82953125 9.01586914 104.2265625 C9.22157267 76.48002008 8.54541322 48.73956707 8 21 C7.25142412 59.9355736 6.80028175 98.87157709 6.4375 137.8125 C6.4263982 139.00389587 6.4152964 140.19529175 6.40385818 141.42279053 C6.26572223 156.28182907 6.13119021 171.14089857 6 186 C5.67 186 5.34 186 5 186 C4.99853344 185.07178342 4.99706688 184.14356684 4.99555588 183.18722248 C4.9589764 160.6116085 4.89954722 138.03614306 4.81609726 115.46065235 C4.77627173 104.54334577 4.74389709 93.62611164 4.72900391 82.70874023 C4.7160056 73.194213 4.68908758 63.67984495 4.64538693 54.16540736 C4.62273113 49.12659529 4.60709179 44.08797985 4.60811615 39.04911232 C4.60886033 34.30729212 4.59100713 29.56590727 4.55883217 24.82419968 C4.55030682 23.08314562 4.54860106 21.34204288 4.55419731 19.60097694 C4.56081934 17.22438459 4.5429616 14.84918466 4.51898193 12.47273254 C4.52674235 11.78303511 4.53450277 11.09333768 4.54249835 10.38274032 C4.45850129 5.68341856 3.24518909 3.35304066 0 0 Z " fill="#7AC038" transform="translate(240,20)"/>
<path d="M0 0 C0 1.32 0 2.64 0 4 C-53.79 4 -107.58 4 -163 4 C-162.67 3.01 -162.34 2.02 -162 1 C-142.50202571 0.86916969 -123.00404865 0.73876088 -103.50606823 0.60884857 C-94.45204219 0.54851313 -85.3980171 0.48804175 -76.34399414 0.42724609 C-68.44898114 0.37423327 -60.55396645 0.32147985 -52.65894967 0.26903296 C-48.48183682 0.24127531 -44.3047249 0.21339115 -40.12761497 0.18519592 C-36.18867954 0.15861247 -32.24974194 0.13237826 -28.31080246 0.10640144 C-26.87218326 0.09685427 -25.43356487 0.08718411 -23.99494743 0.07737541 C-15.9964942 0.02291877 -7.9986474 -0.01376694 0 0 Z " fill="#3FA80C" transform="translate(219,215)"/>
<path d="M0 0 C-0.46588495 5.70709064 -1.93757784 9.15939723 -5 14 C-4.34 14 -3.68 14 -3 14 C-3.50603992 16.16874252 -3.99983813 17.99967627 -5 20 C-5.639375 20.12375 -6.27875 20.2475 -6.9375 20.375 C-9.19851273 20.80939427 -9.19851273 20.80939427 -10.25 23.0625 C-10.4975 23.701875 -10.745 24.34125 -11 25 C-9.68 24.67 -8.36 24.34 -7 24 C-8.3809002 27.33717549 -9.8201238 29.22301036 -13 31 C-15.25 30.6875 -15.25 30.6875 -17 30 C-17.25 24.375 -17.25 24.375 -15 21 C-19.77356368 20.82320135 -21.96515465 21.10536934 -25.65234375 24.29296875 C-27.40116802 26.11369769 -29.11880248 27.96500184 -30.80078125 29.84765625 C-33 32 -33 32 -36 32 C-35.50153711 28.31137465 -34.9758353 26.31453856 -32 24 C-30.66666667 23.33333333 -29.33333333 22.66666667 -28 22 C-27.67 21.34 -27.34 20.68 -27 20 C-27.99 20 -28.98 20 -30 20 C-28.125 15.125 -28.125 15.125 -27 14 C-25.989375 14.144375 -24.97875 14.28875 -23.9375 14.4375 C-18.79362555 13.86595839 -17.49729839 11.87837562 -14.12109375 8.1796875 C-10.33429869 4.28828484 -5.5955652 0 0 0 Z " fill="#42831B" transform="translate(55,225)"/>
<path d="M0 0 C1.32 0 2.64 0 4 0 C5.17664871 3.52994613 5.19850603 6.29455413 5 10 C4.01 11.485 4.01 11.485 3 13 C4.98264795 12.34410262 4.98264795 12.34410262 7 11 C7.309375 10.21625 7.61875 9.4325 7.9375 8.625 C9.32507526 5.19687288 10.86417435 3.92425665 14 2 C17.3125 1.75 17.3125 1.75 20 2 C21.125 8.75 21.125 8.75 20 11 C20.66 11 21.32 11 22 11 C22 11.99 22 12.98 22 14 C21.05125 14.45375 20.1025 14.9075 19.125 15.375 C15.99686321 16.80238254 15.99686321 16.80238254 14 19 C11.5 18.875 11.5 18.875 9 18 C7.6875 15.9375 7.6875 15.9375 7 14 C6.32904297 14.54140625 6.32904297 14.54140625 5.64453125 15.09375 C0.72799471 18.86763733 0.72799471 18.86763733 -2.75 19.5 C-5.41042625 18.90879417 -6.40180823 18.18699927 -8 16 C-8 15.34 -8 14.68 -8 14 C-9.32 13.34 -10.64 12.68 -12 12 C-11.113125 11.46375 -10.22625 10.9275 -9.3125 10.375 C-5.31262827 7.72105667 -2.16365027 4.32730054 0 0 Z " fill="#43841D" transform="translate(107,236)"/>
<path d="M0 0 C1.06541016 0.00515625 2.13082031 0.0103125 3.22851562 0.015625 C4.33517578 0.03625 5.44183594 0.056875 6.58203125 0.078125 C8.25942383 0.08585938 8.25942383 0.08585938 9.97070312 0.09375 C18.24049423 0.17408798 18.24049423 0.17408798 19.39453125 1.328125 C19.39453125 2.978125 19.39453125 4.628125 19.39453125 6.328125 C12.79453125 6.658125 6.19453125 6.988125 -0.60546875 7.328125 C-0.93546875 8.318125 -1.26546875 9.308125 -1.60546875 10.328125 C-1.00484619 10.32288818 -0.40422363 10.31765137 0.21459961 10.31225586 C2.92039963 10.29154486 5.62618302 10.27848375 8.33203125 10.265625 C9.75032227 10.25305664 9.75032227 10.25305664 11.19726562 10.24023438 C12.54594727 10.23540039 12.54594727 10.23540039 13.921875 10.23046875 C14.75452881 10.22523193 15.58718262 10.21999512 16.44506836 10.21459961 C18.39453125 10.328125 18.39453125 10.328125 19.39453125 11.328125 C19.39453125 12.978125 19.39453125 14.628125 19.39453125 16.328125 C11.14453125 16.328125 2.89453125 16.328125 -5.60546875 16.328125 C-6.26546875 15.008125 -6.92546875 13.688125 -7.60546875 12.328125 C-8.26546875 12.328125 -8.92546875 12.328125 -9.60546875 12.328125 C-9.71383328 10.89229499 -9.79123042 9.4541048 -9.85546875 8.015625 C-9.901875 7.21511719 -9.94828125 6.41460937 -9.99609375 5.58984375 C-9.60546875 3.328125 -9.60546875 3.328125 -7.93139648 1.70727539 C-5.07148093 0.01149886 -3.30912881 -0.03161675 0 0 Z " fill="#5CB320" transform="translate(150.60546875,166.671875)"/>
<path d="M0 0 C0 3.3 0 6.6 0 10 C-0.495 9.01 -0.495 9.01 -1 8 C-1.99 8.66 -2.98 9.32 -4 10 C-4.99 10 -5.98 10 -7 10 C-7.28875 11.134375 -7.5775 12.26875 -7.875 13.4375 C-8.24625 14.613125 -8.6175 15.78875 -9 17 C-9.66 17.33 -10.32 17.66 -11 18 C-11 17.34 -11 16.68 -11 16 C-12.65 16 -14.3 16 -16 16 C-15.67 16.99 -15.34 17.98 -15 19 C-18.61867559 20.2062252 -21.92506251 20.10816918 -25.6875 20.0625 C-26.38939453 20.05798828 -27.09128906 20.05347656 -27.81445312 20.04882812 C-29.54300538 20.03706927 -31.27151365 20.01913454 -33 20 C-33.79953138 16.71303767 -34.09658936 15.28976808 -33 12 C-31.081875 12.04833984 -31.081875 12.04833984 -29.125 12.09765625 C-19.62916106 12.39777404 -19.62916106 12.39777404 -11.09765625 9 C-9.04144291 6.63367194 -9.04144291 6.63367194 -7.47265625 4.12890625 C-5.48456458 1.25487453 -3.51986418 0 0 0 Z " fill="#50B216" transform="translate(201,78)"/>
<path d="M0 0 C0.99 0.33 1.98 0.66 3 1 C3.08131463 2.43655854 3.13933559 3.8744483 3.1875 5.3125 C3.23970703 6.51326172 3.23970703 6.51326172 3.29296875 7.73828125 C3 10 3 10 1.91015625 11.62304688 C-0.96754458 13.69746312 -3.34621482 13.33738969 -6.85546875 13.29296875 C-7.51710526 13.28872391 -8.17874176 13.28447906 -8.86042786 13.28010559 C-10.9698691 13.26333693 -13.07834846 13.22569099 -15.1875 13.1875 C-16.61912681 13.17245068 -18.05076862 13.1587627 -19.48242188 13.14648438 C-22.98859288 13.1134403 -26.49420254 13.06167167 -30 13 C-30 9.37 -30 5.74 -30 2 C-29.67 2.66 -29.34 3.32 -29 4 C-27.35 3.67 -25.7 3.34 -24 3 C-24 4.65 -24 6.3 -24 8 C-21.06217531 7.85924795 -18.12484829 7.7126162 -15.1875 7.5625 C-13.93743164 7.50352539 -13.93743164 7.50352539 -12.66210938 7.44335938 C-11.85966797 7.40146484 -11.05722656 7.35957031 -10.23046875 7.31640625 C-9.49207764 7.27974854 -8.75368652 7.24309082 -7.99291992 7.20532227 C-5.792505 7.05157859 -5.792505 7.05157859 -3 6 C-3 5.34 -3 4.68 -3 4 C-2.34 3.34 -1.68 2.68 -1 2 C-0.67 1.34 -0.34 0.68 0 0 Z " fill="#48AB09" transform="translate(132,170)"/>
<path d="M0 0 C1.65 0 3.3 0 5 0 C5 1.32 5 2.64 5 4 C5.99 4.33 6.98 4.66 8 5 C8.66 8.63 9.32 12.26 10 16 C9.01 16 8.02 16 7 16 C7 16.99 7 17.98 7 19 C3.95157135 19.90901939 1.40338364 20.06173367 -1.765625 19.87890625 C-2.65507813 19.83056641 -3.54453125 19.78222656 -4.4609375 19.73242188 C-5.38132812 19.67634766 -6.30171875 19.62027344 -7.25 19.5625 C-8.18585938 19.51029297 -9.12171875 19.45808594 -10.0859375 19.40429688 C-12.39098887 19.27493175 -14.69557289 19.13997966 -17 19 C-17 17.68 -17 16.36 -17 15 C-17.66 14.34 -18.32 13.68 -19 13 C-8.605 12.505 -8.605 12.505 2 12 C2 10.02 2 8.04 2 6 C0.02 5.34 -1.96 4.68 -4 4 C-3.67 3.34 -3.34 2.68 -3 2 C-2.01 2 -1.02 2 0 2 C0 1.34 0 0.68 0 0 Z " fill="#49AB10" transform="translate(129,142)"/>
<path d="M0 0 C1.25361328 0.00322266 2.50722656 0.00644531 3.79882812 0.00976562 C5.76432617 0.02233398 5.76432617 0.02233398 7.76953125 0.03515625 C9.10481606 0.04017308 10.44010266 0.04473566 11.77539062 0.04882812 C15.04431598 0.0606293 18.31315116 0.07709328 21.58203125 0.09765625 C21.76953125 2.47265625 21.76953125 2.47265625 21.58203125 5.09765625 C18.32813137 7.26692284 17.44807168 7.33845674 13.6953125 7.29296875 C12.75751953 7.28652344 11.81972656 7.28007812 10.85351562 7.2734375 C9.38881836 7.24830078 9.38881836 7.24830078 7.89453125 7.22265625 C6.90646484 7.21363281 5.91839844 7.20460937 4.90039062 7.1953125 C2.4606936 7.17174055 0.02148428 7.13883647 -2.41796875 7.09765625 C-2.08796875 5.77765625 -1.75796875 4.45765625 -1.41796875 3.09765625 C-2.40796875 3.59265625 -2.40796875 3.59265625 -3.41796875 4.09765625 C-5.75095535 4.13788016 -8.08503541 4.14085872 -10.41796875 4.09765625 C-10.54171875 4.73703125 -10.66546875 5.37640625 -10.79296875 6.03515625 C-10.99921875 6.71578125 -11.20546875 7.39640625 -11.41796875 8.09765625 C-12.40796875 8.59265625 -12.40796875 8.59265625 -13.41796875 9.09765625 C-13.74796875 7.44765625 -14.07796875 5.79765625 -14.41796875 4.09765625 C-9.34408362 0.94361955 -5.97405242 -0.02703191 0 0 Z " fill="#44AC13" transform="translate(117.41796875,124.90234375)"/>
<path d="M0 0 C1.32 0.33 2.64 0.66 4 1 C3.34 3.64 2.68 6.28 2 9 C1.195625 9.12375 0.39125 9.2475 -0.4375 9.375 C-1.283125 9.58125 -2.12875 9.7875 -3 10 C-3.33 10.66 -3.66 11.32 -4 12 C-4.70125 12.268125 -5.4025 12.53625 -6.125 12.8125 C-9.31067801 14.12832353 -11.65339812 15.86442477 -14.3515625 17.9765625 C-16 19 -16 19 -19 19 C-18.41980487 15.63486826 -17.36548527 14.36548527 -15 12 C-14.28552357 9.89667109 -14.28552357 9.89667109 -14 8 C-14.99 7.67 -15.98 7.34 -17 7 C-16.34 7 -15.68 7 -15 7 C-15 5.35 -15 3.7 -15 2 C-13.68 1.67 -12.36 1.34 -11 1 C-10.67 2.32 -10.34 3.64 -10 5 C-5.94914321 4.75368443 -5.94914321 4.75368443 -2 4 C-0.4100567 2.07935207 -0.4100567 2.07935207 0 0 Z " fill="#44841D" transform="translate(237,231)"/>
<path d="M0 0 C0.78632813 0.00515625 1.57265625 0.0103125 2.3828125 0.015625 C7.0800678 0.078047 11.64132084 0.3089608 16.25 1.25 C16.745 2.24 16.745 2.24 17.25 3.25 C16.59 3.25 15.93 3.25 15.25 3.25 C15.745 5.23 15.745 5.23 16.25 7.25 C5.03 7.25 -6.19 7.25 -17.75 7.25 C-17.75 6.92 -17.75 6.59 -17.75 6.25 C-15.44 6.25 -13.13 6.25 -10.75 6.25 C-11.08 5.26 -11.41 4.27 -11.75 3.25 C-8.41776743 -0.69093079 -4.84101684 -0.12452776 0 0 Z " fill="#48AE11" transform="translate(168.75,154.75)"/>
<path d="M0 0 C0.99 0 1.98 0 3 0 C2.61322843 7.34865985 -2.04682371 13.07023557 -6 19 C-6 18.01 -6 17.02 -6 16 C-9.37462715 16.54723683 -11.08235 17.0549 -14 19 C-13.67 19.33 -13.34 19.66 -13 20 C-12.34 19.67 -11.68 19.34 -11 19 C-11.33 20.98 -11.66 22.96 -12 25 C-13.65 25.33 -15.3 25.66 -17 26 C-19.399545 22.40068251 -19.81480111 21.23696577 -19 17 C-15.74816797 12.99155359 -12.69106486 10.21138311 -7.5 9.5625 C-6.675 9.706875 -5.85 9.85125 -5 10 C-4.731875 9.0925 -4.46375 8.185 -4.1875 7.25 C-3.09365038 4.25630631 -2.19576514 2.28359575 0 0 Z " fill="#3F8118" transform="translate(213,228)"/>
<path d="M0 0 C0.2954439 5.02254631 -0.01485372 7.89542386 -3 12 C-1.02 11.34 0.96 10.68 3 10 C2.6684371 13.0945871 1.97117406 14.02804686 -0.3125 16.25 C-3 18 -3 18 -7 18 C-7 16.68 -7 15.36 -7 14 C-7.66 14 -8.32 14 -9 14 C-9.33 14.66 -9.66 15.32 -10 16 C-10.75 14.3125 -10.75 14.3125 -11 12 C-9.0625 9.25 -9.0625 9.25 -7 7 C-9.475 8.485 -9.475 8.485 -12 10 C-12.99 9.01 -13.98 8.02 -15 7 C-13.87720538 6.01830524 -12.75168527 5.03972702 -11.625 4.0625 C-10.68527344 3.24458984 -10.68527344 3.24458984 -9.7265625 2.41015625 C-6.46881768 -0.25058104 -4.12877792 -0.08975604 0 0 Z " fill="#42831C" transform="translate(177,237)"/>
<path d="M0 0 C0.33 0 0.66 0 1 0 C1.03738281 0.95261719 1.07476562 1.90523437 1.11328125 2.88671875 C1.17902344 4.14097656 1.24476563 5.39523438 1.3125 6.6875 C1.39951172 8.54955078 1.39951172 8.54955078 1.48828125 10.44921875 C2.01353544 14.09392151 2.80569431 16.07967713 5 19 C5.66 19.33 6.32 19.66 7 20 C6.34 21.98 5.68 23.96 5 26 C4.0925 26.12375 3.185 26.2475 2.25 26.375 C-0.89548679 26.82809864 -0.89548679 26.82809864 -3.125 28.0625 C-5 29 -5 29 -9 29 C-9 30.32 -9 31.64 -9 33 C-10.9375 33.5625 -10.9375 33.5625 -13 34 C-14 33 -14 33 -14.375 30.1875 C-14 27 -14 27 -11.9375 24.875 C-2.73333333 19 -2.73333333 19 0 19 C0 12.73 0 6.46 0 0 Z " fill="#5BB51F" transform="translate(176,43)"/>
<path d="M0 0 C0.78375 0.04125 1.5675 0.0825 2.375 0.125 C3.29688461 2.89065382 3.49285222 4.50783702 3.47265625 7.35546875 C3.46943359 8.15791016 3.46621094 8.96035156 3.46289062 9.78710938 C3.45032227 11.03717773 3.45032227 11.03717773 3.4375 12.3125 C3.43298828 13.15748047 3.42847656 14.00246094 3.42382812 14.87304688 C3.41205403 16.95706155 3.3941189 19.04103977 3.375 21.125 C2.715 21.125 2.055 21.125 1.375 21.125 C1.375 21.785 1.375 22.445 1.375 23.125 C-0.89026427 22.21889429 -2.32959355 21.54848477 -3.7421875 19.5234375 C-4.96713495 16.19548292 -4.91519223 12.99672368 -4.875 9.5 C-4.88273438 8.819375 -4.89046875 8.13875 -4.8984375 7.4375 C-4.86995688 0.23190271 -4.86995688 0.23190271 0 0 Z " fill="#4CAD12" transform="translate(181.625,39.875)"/>
<path d="M0 0 C1.125 6.75 1.125 6.75 0 9 C0.66 9 1.32 9 2 9 C2 9.99 2 10.98 2 12 C1.05125 12.45375 0.1025 12.9075 -0.875 13.375 C-4.00313679 14.80238254 -4.00313679 14.80238254 -6 17 C-8.125 16.625 -8.125 16.625 -10 16 C-9.34 15.34 -8.68 14.68 -8 14 C-8.99 12.35 -9.98 10.7 -11 9 C-12.32 9.33 -13.64 9.66 -15 10 C-14.34 9.67 -13.68 9.34 -13 9 C-12.731875 8.236875 -12.46375 7.47375 -12.1875 6.6875 C-9.66547706 0.97976386 -6.02775954 -0.56072182 0 0 Z " fill="#468620" transform="translate(251,238)"/>
<path d="M0 0 C3 2 3 2 3.9375 5.375 C4 9 4 9 2.5 11.4375 C-0.92144502 13.57590314 -3.03478823 13.56645882 -7 13 C-9.4375 11.375 -9.4375 11.375 -11 9 C-11.44912849 5.85610056 -11.504106 3.94519875 -10 1.125 C-6.85103686 -0.64629177 -3.52961671 -0.54794453 0 0 Z " fill="#56B01E" transform="translate(154,24)"/>
<path d="M0 0 C1.32 0 2.64 0 4 0 C5.44282367 8.1354395 5.44282367 8.1354395 3.6875 11.5625 C2 13 2 13 0 13 C0.33 13.99 0.66 14.98 1 16 C0.67 16.99 0.34 17.98 0 19 C-3.28993102 19.36554789 -4.63099885 19.26218503 -7.375 17.3125 C-9 15 -9 15 -9.125 12.6875 C-7.75740428 9.42046579 -5.85703754 7.23786386 -3.47265625 4.6484375 C-1.80400335 2.85839375 -1.80400335 2.85839375 0 0 Z " fill="#468621" transform="translate(60,236)"/>
<path d="M0 0 C2.05859375 -0.3984375 2.05859375 -0.3984375 4.4375 -0.375 C5.21996094 -0.38273437 6.00242187 -0.39046875 6.80859375 -0.3984375 C9.50845933 0.09244715 10.39289549 0.79973704 12 3 C12.36528977 6.4093712 12.6140629 8.88023824 10.9375 11.9375 C7.87116726 13.61903731 5.42486249 13.36051184 2 13 C-0.4375 11.9375 -0.4375 11.9375 -2 10 C-2.46913089 5.62144505 -2.46943529 3.70415293 0 0 Z " fill="#54B015" transform="translate(86,91)"/>
<path d="M0 0 C0.7734375 -0.00773437 1.546875 -0.01546875 2.34375 -0.0234375 C5.00660611 0.468612 5.89376622 1.22325287 7.5 3.375 C8.14242424 8.51439394 8.14242424 8.51439394 6.2578125 11.0390625 C4.03747321 12.72652036 2.76536019 12.7776536 0 12.75 C-0.7734375 12.75773437 -1.546875 12.76546875 -2.34375 12.7734375 C-5.00660611 12.281388 -5.89376622 11.52674713 -7.5 9.375 C-8.14242424 4.23560606 -8.14242424 4.23560606 -6.2578125 1.7109375 C-4.03747321 0.02347964 -2.76536019 -0.0276536 0 0 Z " fill="#55B11E" transform="translate(104.5,47.625)"/>
<path d="M0 0 C0.33 0 0.66 0 1 0 C1.04254356 1.99954746 1.04080783 4.00041636 1 6 C-0.58272601 7.58272601 -2.38034003 7.34735747 -4.5625 7.5625 C-5.38878906 7.64628906 -6.21507813 7.73007813 -7.06640625 7.81640625 C-8.02353516 7.90728516 -8.02353516 7.90728516 -9 8 C-9 8.33 -9 8.66 -9 9 C-12.3 9 -15.6 9 -19 9 C-19 10.32 -19 11.64 -19 13 C-17.9275 12.814375 -16.855 12.62875 -15.75 12.4375 C-10.1245359 11.70902263 -4.61191429 12.39204262 1 13 C1 13.33 1 13.66 1 14 C-3.09292917 14.19222407 -7.18620091 14.3709507 -11.28027344 14.53710938 C-12.67333833 14.59555965 -14.0662528 14.65771628 -15.45898438 14.72363281 C-17.45920227 14.81766015 -19.46007932 14.89732059 -21.4609375 14.9765625 C-22.66540527 15.02893066 -23.86987305 15.08129883 -25.11083984 15.13525391 C-28 15 -28 15 -30 13 C-30.1875 9.9375 -30.1875 9.9375 -30 7 C-28.16780354 5.16780354 -25.24286259 5.76098672 -22.77734375 5.68359375 C-21.51728516 5.64169922 -20.25722656 5.59980469 -18.95898438 5.55664062 C-17.61849264 5.51682404 -16.2779978 5.47711186 -14.9375 5.4375 C-13.59308477 5.39431958 -12.2486834 5.35070544 -10.90429688 5.30664062 C-7.6029766 5.20014642 -4.30157764 5.0981354 -1 5 C-0.67 3.35 -0.34 1.7 0 0 Z " fill="#40A810" transform="translate(131,148)"/>
<path d="M0 0 C2.68238885 0.0829102 4.13742088 0.31808939 6.625 1.4375 C8.125 3.3125 8.125 3.3125 8.5625 6.3125 C8.125 9.3125 8.125 9.3125 7.125 11.1875 C3.93007218 12.9846469 0.6536159 12.8662868 -2.875 12.3125 C-5.375 10.8125 -5.375 10.8125 -6.875 9.3125 C-5.89308318 0.47524864 -5.89308318 0.47524864 0 0 Z " fill="#5BB31B" transform="translate(196.875,47.6875)"/>
<path d="M0 0 C2.0625 0.4375 2.0625 0.4375 4 1 C3.45881889 5.4425315 1.79637227 8.03356545 -0.8125 11.625 C-4.6467986 17.17337463 -7.072718 22.55882068 -9 29 C-10.32 29 -11.64 29 -13 29 C-13.25 23.375 -13.25 23.375 -11 20 C-10.71253906 19.08863281 -10.42507813 18.17726562 -10.12890625 17.23828125 C-8.84731173 13.56201184 -7.01661323 10.44936458 -4.9375 7.1875 C-4.57333984 6.60291016 -4.20917969 6.01832031 -3.83398438 5.41601562 C-1.17597535 1.17597535 -1.17597535 1.17597535 0 0 Z " fill="#42831B" transform="translate(269,225)"/>
<path d="M0 0 C2 1.0625 2 1.0625 3 3 C2.66666667 9.33333333 2.66666667 9.33333333 0 12 C-1.875 12.265625 -1.875 12.265625 -4 12.25 C-4.70125 12.25515625 -5.4025 12.2603125 -6.125 12.265625 C-8 12 -8 12 -10 10 C-10.30078125 8.125 -10.30078125 8.125 -10.3125 6 C-10.32925781 5.29875 -10.34601563 4.5975 -10.36328125 3.875 C-10.24339844 3.25625 -10.12351563 2.6375 -10 2 C-6.30513897 -0.46324069 -4.36706908 -0.38991688 0 0 Z " fill="#4EAF18" transform="translate(215,89)"/>
<path d="M0 0 C0 0.66 0 1.32 0 2 C0.99 1.34 1.98 0.68 3 0 C5.04296875 -0.1953125 5.04296875 -0.1953125 7.1875 -0.125 C9.0746875 -0.063125 9.0746875 -0.063125 11 0 C11.33 1.32 11.66 2.64 12 4 C9.36 4.33 6.72 4.66 4 5 C6.31 5.33 8.62 5.66 11 6 C11 6.33 11 6.66 11 7 C9.741875 7.020625 8.48375 7.04125 7.1875 7.0625 C6.47980469 7.07410156 5.77210938 7.08570313 5.04296875 7.09765625 C3 7 3 7 0 6 C0 6.66 0 7.32 0 8 C-6.4 8.36923077 -6.4 8.36923077 -9.4375 6.5 C-9.953125 6.005 -10.46875 5.51 -11 5 C-10.625 3.0625 -10.625 3.0625 -10 1 C-6.78548731 -0.60725635 -3.56387464 -0.05748185 0 0 Z " fill="#F5FBEC" transform="translate(138,201)"/>
<path d="M0 0 C3.63 0 7.26 0 11 0 C11 3.96 11 7.92 11 12 C10.34 12 9.68 12 9 12 C8.67 10.02 8.34 8.04 8 6 C7.67 31.08 7.34 56.16 7 82 C6.67 82 6.34 82 6 82 C5.99857498 81.0316925 5.99714996 80.06338501 5.99568176 79.06573486 C5.97901618 69.94274141 5.93625637 60.82019426 5.86790943 51.69743729 C5.83361036 47.00721078 5.80852495 42.31731099 5.80444336 37.62695312 C5.80016661 33.10088145 5.77175634 28.57554718 5.72656822 24.04970551 C5.71357314 22.32258142 5.70929266 20.59536918 5.71384621 18.86820221 C5.71873825 16.44940968 5.69272611 14.03278403 5.65942383 11.61425781 C5.66804947 10.89928131 5.67667511 10.18430481 5.68556213 9.44766235 C5.59664858 5.59854878 5.2682874 4.26139097 2.45878601 1.52410889 C1.64738663 1.02115295 0.83598724 0.51819702 0 0 Z " fill="#5FB30F" transform="translate(240,20)"/>
<path d="M0 0 C1.65 0 3.3 0 5 0 C6.22625047 2.45250093 6.03425355 3.84310435 5.87890625 6.5703125 C5.83056641 7.46621094 5.78222656 8.36210938 5.73242188 9.28515625 C5.67634766 10.22230469 5.62027344 11.15945312 5.5625 12.125 C5.51029297 13.06988281 5.45808594 14.01476563 5.40429688 14.98828125 C5.27443239 17.3258419 5.1394613 19.66299545 5 22 C4.01 22.33 3.02 22.66 2 23 C1.34 21.68 0.68 20.36 0 19 C-0.66 19 -1.32 19 -2 19 C-2 13.39 -2 7.78 -2 2 C-1.34 2 -0.68 2 0 2 C0 4.31 0 6.62 0 9 C0.66 9 1.32 9 2 9 C2.76716851 6.14921909 2.76716851 6.14921909 3 3 C1.68681738 1.10041919 1.68681738 1.10041919 0 0 Z " fill="#4AAD13" transform="translate(121,42)"/>
<path d="M0 0 C-0.66 2.64 -1.32 5.28 -2 8 C1.3 6.68 4.6 5.36 8 4 C8.33 5.32 8.66 6.64 9 8 C9.66 8.66 10.32 9.32 11 10 C11 10.66 11 11.32 11 12 C8.525 11.505 8.525 11.505 6 11 C5.67 10.01 5.34 9.02 5 8 C4.20335937 8.66708984 4.20335937 8.66708984 3.390625 9.34765625 C2.68421875 9.91355469 1.9778125 10.47945312 1.25 11.0625 C0.55390625 11.63097656 -0.1421875 12.19945312 -0.859375 12.78515625 C-3 14 -3 14 -5.265625 13.68359375 C-5.83796875 13.45800781 -6.4103125 13.23242188 -7 13 C-7 11.35 -7 9.7 -7 8 C-7.66 8 -8.32 8 -9 8 C-9 7.01 -9 6.02 -9 5 C-7.5390625 3.61328125 -7.5390625 3.61328125 -5.625 2.3125 C-4.68527344 1.65701172 -4.68527344 1.65701172 -3.7265625 0.98828125 C-2 0 -2 0 0 0 Z " fill="#42831B" transform="translate(233,242)"/>
<path d="M0 0 C0.66 0 1.32 0 2 0 C1.67 1.65 1.34 3.3 1 5 C7.93 5.495 7.93 5.495 15 6 C14.01 6.33 13.02 6.66 12 7 C12 9.31 12 11.62 12 14 C8.37 14 4.74 14 1 14 C1 13.34 1 12.68 1 12 C0.34 12 -0.32 12 -1 12 C-1.02712066 10.56260487 -1.04645067 9.12506137 -1.0625 7.6875 C-1.07410156 6.88699219 -1.08570312 6.08648437 -1.09765625 5.26171875 C-1 3 -1 3 0 0 Z " fill="#47AA0A" transform="translate(111,132)"/>
<path d="M0 0 C1.32 0 2.64 0 4 0 C5.1577506 3.47325181 5.06866652 6.36067448 5 10 C2.3125 11.625 2.3125 11.625 -1 13 C-3.875 12.1875 -3.875 12.1875 -6 11 C-6.99 12.485 -6.99 12.485 -8 14 C-9.32 13.34 -10.64 12.68 -12 12 C-11.113125 11.46375 -10.22625 10.9275 -9.3125 10.375 C-5.31262827 7.72105667 -2.16365027 4.32730054 0 0 Z " fill="#42831C" transform="translate(107,236)"/>
<path d="M0 0 C5.94 0 11.88 0 18 0 C18 0.33 18 0.66 18 1 C15.69 1.33 13.38 1.66 11 2 C12.32 2 13.64 2 15 2 C15 3.65 15 5.3 15 7 C10.05 7 5.1 7 0 7 C-1 2 -1 2 0 0 Z " fill="#45AF10" transform="translate(168,91)"/>
<path d="M0 0 C-3.4019487 2.09350689 -6.05272412 2.17942163 -10 2 C-10 2.66 -10 3.32 -10 4 C-8.35 4.33 -6.7 4.66 -5 5 C-5 5.66 -5 6.32 -5 7 C-5.66 7 -6.32 7 -7 7 C-7 7.66 -7 8.32 -7 9 C-6.319375 8.67 -5.63875 8.34 -4.9375 8 C-1.49159762 6.82692685 1.38397422 6.85819507 5 7 C5 7.33 5 7.66 5 8 C2.96040523 8.50838564 0.91820862 9.00633886 -1.125 9.5 C-2.26195313 9.7784375 -3.39890625 10.056875 -4.5703125 10.34375 C-9.56325605 11.29911961 -12.68396292 11.87735805 -17 9 C-17.1875 6.375 -17.1875 6.375 -17 4 C-15.35 3.67 -13.7 3.34 -12 3 C-12 2.34 -12 1.68 -12 1 C-7.95858806 0.36605303 -4.0934693 -0.12404452 0 0 Z " fill="#71B92C" transform="translate(110,63)"/>
<path d="M0 0 C3.66835926 -0.34025361 5.46536373 -0.36623402 8.5546875 1.75 C9.70324219 2.86375 9.70324219 2.86375 10.875 4 C11.65617187 4.7425 12.43734375 5.485 13.2421875 6.25 C13.82226562 6.8275 14.40234375 7.405 15 8 C12.50907189 9.24546405 11.58919267 8.7767578 9 8 C8.34 9.32 7.68 10.64 7 12 C3.20048294 10.50733258 1.1645138 8.44718865 -1 5 C-0.75 2.1875 -0.75 2.1875 0 0 Z " fill="#4BB01B" transform="translate(92,77)"/>
<path d="M0 0 C0.80244141 0.00966797 1.60488281 0.01933594 2.43164062 0.02929688 C3.68170898 0.06700195 3.68170898 0.06700195 4.95703125 0.10546875 C6.22450195 0.12577148 6.22450195 0.12577148 7.51757812 0.14648438 C9.60183509 0.18181076 11.68576402 0.23561736 13.76953125 0.29296875 C13.76953125 0.62296875 13.76953125 0.95296875 13.76953125 1.29296875 C8.81953125 1.62296875 3.86953125 1.95296875 -1.23046875 2.29296875 C-1.56046875 3.28296875 -1.89046875 4.27296875 -2.23046875 5.29296875 C-1.40804687 5.19757813 -0.585625 5.1021875 0.26171875 5.00390625 C7.52610624 4.28250056 13.71542441 4.36622625 20.76953125 6.29296875 C20.76953125 6.62296875 20.76953125 6.95296875 20.76953125 7.29296875 C9.54953125 7.29296875 -1.67046875 7.29296875 -13.23046875 7.29296875 C-13.23046875 6.96296875 -13.23046875 6.63296875 -13.23046875 6.29296875 C-10.92046875 6.29296875 -8.61046875 6.29296875 -6.23046875 6.29296875 C-6.56046875 5.30296875 -6.89046875 4.31296875 -7.23046875 3.29296875 C-4.91210376 0.51285471 -3.60077825 -0.0766123 0 0 Z " fill="#3EA807" transform="translate(164.23046875,154.70703125)"/>
<path d="M0 0 C0.99 0.33 1.98 0.66 3 1 C3.08131463 2.43655854 3.13933559 3.8744483 3.1875 5.3125 C3.23970703 6.51326172 3.23970703 6.51326172 3.29296875 7.73828125 C2.92427999 10.58455849 2.24325618 11.25826475 0 13 C-2.17651367 13.34057617 -2.17651367 13.34057617 -4.66796875 13.29296875 C-5.56064453 13.28330078 -6.45332031 13.27363281 -7.37304688 13.26367188 C-8.76620117 13.2259668 -8.76620117 13.2259668 -10.1875 13.1875 C-11.12787109 13.17396484 -12.06824219 13.16042969 -13.03710938 13.14648438 C-15.35865038 13.11113096 -17.67903653 13.06178674 -20 13 C-20 12.67 -20 12.34 -20 12 C-15.38 11.67 -10.76 11.34 -6 11 C-5.67 9.35 -5.34 7.7 -5 6 C-4.34 6 -3.68 6 -3 6 C-3 5.34 -3 4.68 -3 4 C-2.34 3.34 -1.68 2.68 -1 2 C-0.67 1.34 -0.34 0.68 0 0 Z " fill="#4FAE15" transform="translate(132,170)"/>
<path d="M0 0 C0.33 1.98 0.66 3.96 1 6 C2.32 5.34 3.64 4.68 5 4 C5.33 4.99 5.66 5.98 6 7 C2.67692308 10.93846154 2.67692308 10.93846154 -0.75 11.25 C-1.4925 11.1675 -2.235 11.085 -3 11 C-3 9.35 -3 7.7 -3 6 C-3.66 6 -4.32 6 -5 6 C-5.33 6.66 -5.66 7.32 -6 8 C-6 6.68 -6 5.36 -6 4 C-6.99 4.66 -7.98 5.32 -9 6 C-8.8125 4.1875 -8.8125 4.1875 -8 2 C-3.744 -1.248 -3.744 -1.248 0 0 Z " fill="#5B943A" transform="translate(207,244)"/>
<path d="M0 0 C9.9 0 19.8 0 30 0 C30 0.33 30 0.66 30 1 C28.02 1 26.04 1 24 1 C24 1.66 24 2.32 24 3 C24.99 3.33 25.98 3.66 27 4 C20.73 4 14.46 4 8 4 C8 3.34 8 2.68 8 2 C5.36 2.33 2.72 2.66 0 3 C0 2.01 0 1.02 0 0 Z " fill="#46A70F" transform="translate(102,168)"/>
<path d="M0 0 C0 0.66 0 1.32 0 2 C-1.65 2.33 -3.3 2.66 -5 3 C-3.02 3.66 -1.04 4.32 1 5 C1 6.32 1 7.64 1 9 C-0.89488952 10.89488952 -3.57139146 10.18019112 -6.08984375 10.23046875 C-8 10 -8 10 -10 8 C-9.9375 5.5625 -9.9375 5.5625 -9 3 C-5.68035674 0.39811744 -4.30683959 0 0 0 Z " fill="#8AC758" transform="translate(196,198)"/>
<path d="M0 0 C2 2 2 2 2.375 4.4375 C2 7 2 7 0.3125 8.8125 C-2.34230436 10.17577792 -4.05574183 10.24535485 -7 10 C-5.68 9.34 -4.36 8.68 -3 8 C-3.804375 7.7525 -4.60875 7.505 -5.4375 7.25 C-8 6 -8 6 -8.8125 3.875 C-8.874375 3.25625 -8.93625 2.6375 -9 2 C-5.54754176 -0.30163882 -4.05261287 -0.34490322 0 0 Z " fill="#A1D274" transform="translate(181,198)"/>
<path d="M0 0 C1.97265625 0.265625 1.97265625 0.265625 4.97265625 2.265625 C4.97265625 3.255625 4.97265625 4.245625 4.97265625 5.265625 C4.31265625 5.265625 3.65265625 5.265625 2.97265625 5.265625 C2.97265625 6.585625 2.97265625 7.905625 2.97265625 9.265625 C2.34617188 9.10964844 1.7196875 8.95367187 1.07421875 8.79296875 C0.25695312 8.59832031 -0.5603125 8.40367188 -1.40234375 8.203125 C-2.21445313 8.00589844 -3.0265625 7.80867188 -3.86328125 7.60546875 C-6.06895659 7.04453181 -6.06895659 7.04453181 -8.02734375 8.265625 C-8.15234375 5.390625 -8.15234375 5.390625 -8.02734375 2.265625 C-5.42029477 -0.34142398 -3.55396134 0.02657167 0 0 Z M-4.02734375 4.265625 C-4.02734375 4.925625 -4.02734375 5.585625 -4.02734375 6.265625 C-2.37734375 6.265625 -0.72734375 6.265625 0.97265625 6.265625 C0.97265625 5.605625 0.97265625 4.945625 0.97265625 4.265625 C-0.67734375 4.265625 -2.32734375 4.265625 -4.02734375 4.265625 Z " fill="#5CB314" transform="translate(152.02734375,23.734375)"/>
<path d="M0 0 C0.33 0.66 0.66 1.32 1 2 C3.64 1.67 6.28 1.34 9 1 C9 1.66 9 2.32 9 3 C10.32 2.67 11.64 2.34 13 2 C10.78071806 4.90802461 9.07030857 6.95312762 6 9 C3.10836622 9.36145422 1.6069553 9.38440503 -0.875 7.8125 C-2 6 -2 6 -1.75 3.375 C-1 1 -1 1 0 0 Z " fill="#3E8117" transform="translate(101,246)"/>
<path d="M0 0 C6.27 0 12.54 0 19 0 C18.67 1.32 18.34 2.64 18 4 C12.06 4 6.12 4 0 4 C0 2.68 0 1.36 0 0 Z " fill="#F7FBEE" transform="translate(109,173)"/>
<path d="M0 0 C0 1.32 0 2.64 0 4 C-5.94 4 -11.88 4 -18 4 C-18 3.34 -18 2.68 -18 2 C-20.64 2 -23.28 2 -26 2 C-26 1.67 -26 1.34 -26 1 C-17.31238511 0.34344611 -8.71782637 -0.16311941 0 0 Z " fill="#36A40D" transform="translate(219,215)"/>
<path d="M0 0 C0.69738281 0.00451172 1.39476562 0.00902344 2.11328125 0.01367188 C3.82555803 0.0253998 5.53779033 0.04333347 7.25 0.0625 C7.25 1.3825 7.25 2.7025 7.25 4.0625 C0.65 4.0625 -5.95 4.0625 -12.75 4.0625 C-12.42 3.0725 -12.09 2.0825 -11.75 1.0625 C-8.0916892 -0.52216433 -3.91852005 -0.04814817 0 0 Z " fill="#46A80B" transform="translate(162.75,177.9375)"/>
<path d="M0 0 C7.2 -0.36 7.2 -0.36 10.5 1.125 C12 3 12 3 12.4375 6 C12 9 12 9 11 10.875 C7.74686316 12.70488947 4.68609891 12.18128355 1 12 C1 11.67 1 11.34 1 11 C2.65 11 4.3 11 6 11 C6 10.34 6 9.68 6 9 C6.66 9 7.32 9 8 9 C8 8.01 8 7.02 8 6 C7.01 6 6.02 6 5 6 C5 4.68 5 3.36 5 2 C3.68 2 2.36 2 1 2 C0.67 2.66 0.34 3.32 0 4 C-0.66 4 -1.32 4 -2 4 C-1.34 2.68 -0.68 1.36 0 0 Z " fill="#4CAD1B" transform="translate(193,48)"/>
<path d="M0 0 C4.4829752 -0.36348448 4.4829752 -0.36348448 6.64668274 1.15766907 C8.53314373 3.72579225 8.36119986 5.49562195 8.34057617 8.66479492 C8.34034958 9.82577194 8.34012299 10.98674896 8.33988953 12.1829071 C8.32440567 13.43610245 8.30892181 14.68929779 8.29296875 15.98046875 C8.28872391 17.26359451 8.28447906 18.54672028 8.28010559 19.86872864 C8.26866162 23.27686138 8.23919896 26.6846094 8.20599365 30.09259033 C8.17528272 33.57143957 8.16159811 37.05035109 8.14648438 40.52929688 C8.11432835 47.35302243 8.06313776 54.17649274 8 61 C7.67 61 7.34 61 7 61 C6.67 42.52 6.34 24.04 6 5 C5.34 4.67 4.68 4.34 4 4 C4 3.01 4 2.02 4 1 C2.68 0.67 1.36 0.34 0 0 Z " fill="#6CBB3F" transform="translate(148,80)"/>
<path d="M0 0 C10.23 0 20.46 0 31 0 C31.495 0.99 31.495 0.99 32 2 C30.76697144 2.03758423 30.76697144 2.03758423 29.5090332 2.07592773 C25.77670626 2.19212655 22.04461683 2.31474505 18.3125 2.4375 C17.01892578 2.47681641 15.72535156 2.51613281 14.39257812 2.55664062 C13.14541016 2.59853516 11.89824219 2.64042969 10.61328125 2.68359375 C8.89298706 2.73858032 8.89298706 2.73858032 7.13793945 2.79467773 C4.33006722 2.97840298 1.73774186 3.3699382 -1 4 C-0.67 2.68 -0.34 1.36 0 0 Z " fill="#6EB518" transform="translate(107,123)"/>
<path d="M0 0 C0.66 0.33 1.32 0.66 2 1 C1.67 1.66 1.34 2.32 1 3 C0.01 3 -0.98 3 -2 3 C-2.33 4.65 -2.66 6.3 -3 8 C-2.34 8.33 -1.68 8.66 -1 9 C-1 9.66 -1 10.32 -1 11 C-0.01 11.33 0.98 11.66 2 12 C-4.5 16 -4.5 16 -9 16 C-9 15.34 -9 14.68 -9 14 C-8.34 14 -7.68 14 -7 14 C-7 13.34 -7 12.68 -7 12 C-6.34 12 -5.68 12 -5 12 C-5 10.68 -5 9.36 -5 8 C-6.32 7.67 -7.64 7.34 -9 7 C-6.03 4.69 -3.06 2.38 0 0 Z " fill="#57B31F" transform="translate(165,32)"/>
<path d="M0 0 C5.94 0 11.88 0 18 0 C18 0.33 18 0.66 18 1 C22.95 1.33 27.9 1.66 33 2 C33 2.33 33 2.66 33 3 C22.11 3 11.22 3 0 3 C0 2.01 0 1.02 0 0 Z " fill="#3BAC07" transform="translate(219,216)"/>
<path d="M0 0 C6.93 0 13.86 0 21 0 C21 1.32 21 2.64 21 4 C14.73 4 8.46 4 2 4 C3.32 3.34 4.64 2.68 6 2 C3.03 1.505 3.03 1.505 0 1 C0 0.67 0 0.34 0 0 Z " fill="#42A80A" transform="translate(148,168)"/>
<path d="M0 0 C0.82741699 0.01047363 1.65483398 0.02094727 2.50732422 0.03173828 C3.40322266 0.03818359 4.29912109 0.04462891 5.22216797 0.05126953 C6.62789062 0.07640625 6.62789062 0.07640625 8.06201172 0.10205078 C9.47933594 0.11558594 9.47933594 0.11558594 10.92529297 0.12939453 C13.26278464 0.15300556 15.59977295 0.18593562 17.93701172 0.22705078 C17.93701172 0.55705078 17.93701172 0.88705078 17.93701172 1.22705078 C11.99701172 1.55705078 6.05701172 1.88705078 -0.06298828 2.22705078 C-0.06298828 2.88705078 -0.06298828 3.54705078 -0.06298828 4.22705078 C6.20701172 4.55705078 12.47701172 4.88705078 18.93701172 5.22705078 C18.93701172 5.55705078 18.93701172 5.88705078 18.93701172 6.22705078 C14.81214333 6.31381986 10.68750788 6.36736373 6.56201172 6.41455078 C5.38638672 6.4396875 4.21076172 6.46482422 2.99951172 6.49072266 C1.87802734 6.50039062 0.75654297 6.51005859 -0.39892578 6.52001953 C-1.43581543 6.53572998 -2.47270508 6.55144043 -3.54101562 6.56762695 C-4.3732666 6.45523682 -5.20551758 6.34284668 -6.06298828 6.22705078 C-6.72298828 5.23705078 -7.38298828 4.24705078 -8.06298828 3.22705078 C-7.44423828 3.10330078 -6.82548828 2.97955078 -6.18798828 2.85205078 C-3.52242461 2.06806147 -2.77161796 0.30504198 0 0 Z " fill="#80C43D" transform="translate(151.06298828125,176.77294921875)"/>
<path d="M0 0 C0 2.97 0 5.94 0 9 C-0.33 9 -0.66 9 -1 9 C-1.1953125 6.94921875 -1.390625 4.8984375 -1.5859375 2.84765625 C-1.72257812 2.23792969 -1.85921875 1.62820312 -2 1 C-2.66 0.67 -3.32 0.34 -4 0 C-4 1.32 -4 2.64 -4 4 C-4.99 4 -5.98 4 -7 4 C-7.33 4.66 -7.66 5.32 -8 6 C-8 5.01 -8 4.02 -8 3 C-14.27 3 -20.54 3 -27 3 C-27 2.67 -27 2.34 -27 2 C-18.585 1.505 -18.585 1.505 -10 1 C-10 0.34 -10 -0.32 -10 -1 C-5.46625958 -2.03039555 -4.35532149 -2.17766075 0 0 Z " fill="#74BF37" transform="translate(136,170)"/>
<path d="M0 0 C-0.99 0.66 -1.98 1.32 -3 2 C-2.01 3.485 -2.01 3.485 -1 5 C-1.375 8.1875 -1.375 8.1875 -2 11 C-2.99 10.67 -3.98 10.34 -5 10 C-5 7.69 -5 5.38 -5 3 C-5.66 3 -6.32 3 -7 3 C-7.33 8.28 -7.66 13.56 -8 19 C-8.33 19 -8.66 19 -9 19 C-9.08071788 16.20775927 -9.14035408 13.41783434 -9.1875 10.625 C-9.21263672 9.8309375 -9.23777344 9.036875 -9.26367188 8.21875 C-9.29004405 6.14413852 -9.15486462 4.06899135 -9 2 C-5.5647952 -0.29013653 -4.014669 -0.17842973 0 0 Z " fill="#7ABB2B" transform="translate(126,41)"/>
<path d="M0 0 C0.33 0.99 0.66 1.98 1 3 C1.99 3 2.98 3 4 3 C2.49616703 7.21073233 -0.20664956 8.83237117 -4 11 C-4.99 11 -5.98 11 -7 11 C-6.40716379 7.60807637 -5.23256811 5.7892243 -2.9375 3.25 C-2.38964844 2.63640625 -1.84179688 2.0228125 -1.27734375 1.390625 C-0.85582031 0.93171875 -0.43429688 0.4728125 0 0 Z " fill="#ECF3E8" transform="translate(225,239)"/>
<path d="M0 0 C2.05078125 0.03255208 4.1015625 0.06510417 6.15234375 0.09765625 C6.48234375 1.41765625 6.81234375 2.73765625 7.15234375 4.09765625 C4.51234375 4.42765625 1.87234375 4.75765625 -0.84765625 5.09765625 C1.46234375 5.42765625 3.77234375 5.75765625 6.15234375 6.09765625 C6.15234375 6.42765625 6.15234375 6.75765625 6.15234375 7.09765625 C-1.59765625 7.22265625 -1.59765625 7.22265625 -3.84765625 6.09765625 C-2.77957394 0.14691194 -2.77957394 0.14691194 0 0 Z " fill="#92CB60" transform="translate(142.84765625,200.90234375)"/>
<path d="M0 0 C0.598125 0.165 1.19625 0.33 1.8125 0.5 C4.11344336 1.1114124 4.11344336 1.1114124 7 1 C6.125 5.875 6.125 5.875 5 7 C-1.2781597 7.59227922 -1.2781597 7.59227922 -4.4375 5 C-4.953125 4.34 -5.46875 3.68 -6 3 C-3.03 3.495 -3.03 3.495 0 4 C0 2.68 0 1.36 0 0 Z " fill="#67BB1F" transform="translate(134,73)"/>
<path d="M0 0 C-0.41474367 5.28798182 -1.35224614 8.11690718 -5 12 C-5.99 11.01 -6.98 10.02 -8 9 C-7.01 7.68 -6.02 6.36 -5 5 C-5.66 4.67 -6.32 4.34 -7 4 C-3.375 0 -3.375 0 0 0 Z " fill="#3F8218" transform="translate(55,225)"/>
<path d="M0 0 C0.33 0 0.66 0 1 0 C1.04254356 1.99954746 1.04080783 4.00041636 1 6 C-0.57638224 7.57638224 -2.22263709 7.20079346 -4.41015625 7.28125 C-5.31830078 7.31863281 -6.22644531 7.35601562 -7.16210938 7.39453125 C-8.11923828 7.42933594 -9.07636719 7.46414062 -10.0625 7.5 C-16.43335678 7.73841044 -22.68456929 8.10735962 -29 9 C-29.33 10.32 -29.66 11.64 -30 13 C-30.04254356 11.00045254 -30.04080783 8.99958364 -30 7 C-28.16780354 5.16780354 -25.24286259 5.76098672 -22.77734375 5.68359375 C-21.51728516 5.64169922 -20.25722656 5.59980469 -18.95898438 5.55664062 C-17.61849264 5.51682404 -16.2779978 5.47711186 -14.9375 5.4375 C-13.59308477 5.39431958 -12.2486834 5.35070544 -10.90429688 5.30664062 C-7.6029766 5.20014642 -4.30157764 5.0981354 -1 5 C-0.67 3.35 -0.34 1.7 0 0 Z " fill="#8AC12E" transform="translate(131,148)"/>
<path d="M0 0 C0 3.3 0 6.6 0 10 C-0.33 9.34 -0.66 8.68 -1 8 C-1.99 8.66 -2.98 9.32 -4 10 C-4.99 9.67 -5.98 9.34 -7 9 C-4.83333333 0 -4.83333333 0 0 0 Z M-10 9 C-9.01 9.33 -8.02 9.66 -7 10 C-7 10.66 -7 11.32 -7 12 C-8.32 11.34 -9.64 10.68 -11 10 C-10.67 9.67 -10.34 9.34 -10 9 Z " fill="#4AB410" transform="translate(201,78)"/>
<path d="M0 0 C2.0625 0.4375 2.0625 0.4375 4 1 C4 1.99 4 2.98 4 4 C4.66 4.33 5.32 4.66 6 5 C5.34 6.32 4.68 7.64 4 9 C4.99 9 5.98 9 7 9 C6.67 9.66 6.34 10.32 6 11 C5.01 10.67 4.02 10.34 3 10 C2.67 9.34 2.34 8.68 2 8 C1.01 8.495 1.01 8.495 0 9 C0 8.34 0 7.68 0 7 C-0.99 6.67 -1.98 6.34 -3 6 C-2.34 6 -1.68 6 -1 6 C-1.0309375 4.7934375 -1.0309375 4.7934375 -1.0625 3.5625 C-1 1 -1 1 0 0 Z " fill="#C8DCBD" transform="translate(223,232)"/>
<path d="M0 0 C0.66 0.33 1.32 0.66 2 1 C2 5.77053792 1.03212341 7.39423163 -2 11 C-4.75 11.375 -4.75 11.375 -7 11 C-6.01 9.68 -5.02 8.36 -4 7 C-4.66 6.34 -5.32 5.68 -6 5 C-4.02 3.35 -2.04 1.7 0 0 Z " fill="#4F8B2B" transform="translate(47,228)"/>
<path d="M0 0 C4.62 0 9.24 0 14 0 C14 0.66 14 1.32 14 2 C13.34 2 12.68 2 12 2 C12 3.32 12 4.64 12 6 C9.36 6 6.72 6 4 6 C4.66 4.68 5.32 3.36 6 2 C3.03 1.505 3.03 1.505 0 1 C0 0.67 0 0.34 0 0 Z " fill="#45AC11" transform="translate(120,92)"/>
<path d="M0 0 C1.65 0 3.3 0 5 0 C5.33 2.31 5.66 4.62 6 7 C4.35 7.33 2.7 7.66 1 8 C1 7.34 1 6.68 1 6 C0.01 5.67 -0.98 5.34 -2 5 C-1.34 3.35 -0.68 1.7 0 0 Z " fill="#4CAE0D" transform="translate(163,35)"/>
<path d="M0 0 C0.66 0 1.32 0 2 0 C1.67 3.63 1.34 7.26 1 11 C-0.65 10.67 -2.3 10.34 -4 10 C-4.33 8.68 -4.66 7.36 -5 6 C-4.34 5.67 -3.68 5.34 -3 5 C-2.505 4.154375 -2.01 3.30875 -1.5 2.4375 C-1.005 1.633125 -0.51 0.82875 0 0 Z " fill="#4A8824" transform="translate(120,244)"/>
<path d="M0 0 C-0.30618405 3.67420866 -0.75771784 4.78135513 -3.5625 7.3125 C-4.366875 7.869375 -5.17125 8.42625 -6 9 C-6.66 8.67 -7.32 8.34 -8 8 C-7.63487253 5.2980567 -7.30130763 3.41609148 -5.6875 1.1875 C-4 0 -4 0 0 0 Z " fill="#3C7F14" transform="translate(223,239)"/>
<path d="M0 0 C0.66 0 1.32 0 2 0 C2 0.99 2 1.98 2 3 C2.66 3.33 3.32 3.66 4 4 C3.34 6.31 2.68 8.62 2 11 C0.68 11 -0.64 11 -2 11 C-2.25 5.375 -2.25 5.375 0 2 C0 1.34 0 0.68 0 0 Z " fill="#4E8B2A" transform="translate(258,243)"/>
<path d="M0 0 C0.33 0.99 0.66 1.98 1 3 C4.51190809 4.22969878 4.51190809 4.22969878 8 5 C8 4.34 8 3.68 8 3 C8.66 3 9.32 3 10 3 C10 3.66 10 4.32 10 5 C10.680625 4.67 11.36125 4.34 12.0625 4 C15.50840238 2.82692685 18.38397422 2.85819507 22 3 C22 3.33 22 3.66 22 4 C19.96040523 4.50838564 17.91820862 5.00633886 15.875 5.5 C14.73804687 5.7784375 13.60109375 6.056875 12.4296875 6.34375 C7.43674395 7.29911961 4.31603708 7.87735805 0 5 C-0.1875 2.375 -0.1875 2.375 0 0 Z " fill="#77BE34" transform="translate(93,67)"/>
<path d="M0 0 C0.66 0.33 1.32 0.66 2 1 C1.175 1.721875 0.35 2.44375 -0.5 3.1875 C-3.24407806 5.72917366 -3.24407806 5.72917366 -3.3125 8.8125 C-3.209375 9.534375 -3.10625 10.25625 -3 11 C-4.32 11.33 -5.64 11.66 -7 12 C-7.93423645 8.98968256 -8.04449911 8.13349732 -7 5 C-5.37109375 3.61328125 -5.37109375 3.61328125 -3.4375 2.3125 C-2.79683594 1.87550781 -2.15617188 1.43851563 -1.49609375 0.98828125 C-1.00238281 0.66214844 -0.50867188 0.33601562 0 0 Z " fill="#488823" transform="translate(170,243)"/>
<path d="M0 0 C3.63 0 7.26 0 11 0 C8.98127747 4.03744506 6.91899872 6.62010675 4 10 C3.34 9.67 2.68 9.34 2 9 C3.65 7.02 5.3 5.04 7 3 C4.69 2.67 2.38 2.34 0 2 C0 1.34 0 0.68 0 0 Z " fill="#99CE61" transform="translate(200,198)"/>
<path d="M0 0 C2.05078125 0.03255208 4.1015625 0.06510417 6.15234375 0.09765625 C6.15234375 0.42765625 6.15234375 0.75765625 6.15234375 1.09765625 C5.18296875 1.22140625 4.21359375 1.34515625 3.21484375 1.47265625 C1.69890625 1.78203125 1.69890625 1.78203125 0.15234375 2.09765625 C-0.17765625 2.75765625 -0.50765625 3.41765625 -0.84765625 4.09765625 C-0.06390625 4.05640625 0.71984375 4.01515625 1.52734375 3.97265625 C4.15234375 4.09765625 4.15234375 4.09765625 6.15234375 6.09765625 C5.77734375 8.22265625 5.77734375 8.22265625 5.15234375 10.09765625 C2.51234375 10.09765625 -0.12765625 10.09765625 -2.84765625 10.09765625 C-2.84765625 9.76765625 -2.84765625 9.43765625 -2.84765625 9.09765625 C-0.53765625 9.09765625 1.77234375 9.09765625 4.15234375 9.09765625 C4.15234375 8.10765625 4.15234375 7.11765625 4.15234375 6.09765625 C1.18234375 5.60265625 1.18234375 5.60265625 -1.84765625 5.09765625 C-2.41015625 3.16015625 -2.41015625 3.16015625 -2.84765625 1.09765625 C-1.84765625 0.09765625 -1.84765625 0.09765625 0 0 Z " fill="#7BC040" transform="translate(96.84765625,197.90234375)"/>
<path d="M0 0 C0.33 0.99 0.66 1.98 1 3 C2.32 2.67 3.64 2.34 5 2 C3.84826645 4.46800047 2.95216435 6.04783565 1 8 C-0.32 8 -1.64 8 -3 8 C-3.1875 5.125 -3.1875 5.125 -3 2 C-2.01 1.34 -1.02 0.68 0 0 Z " fill="#3D8015" transform="translate(92,247)"/>
<path d="M0 0 C-0.1875 1.875 -0.1875 1.875 -1 4 C-2.66666667 4.66666667 -4.33333333 5.33333333 -6 6 C-6.88693303 8.04105639 -6.88693303 8.04105639 -7 10 C-7.66 10 -8.32 10 -9 10 C-9.3125 7.75 -9.3125 7.75 -9 5 C-3.72222222 0 -3.72222222 0 0 0 Z " fill="#6DB315" transform="translate(171,65)"/>
<path d="M0 0 C1.32 0 2.64 0 4 0 C3.70381606 3.55420724 3.19662957 4.80337043 0.625 7.375 C-0.24125 7.91125 -1.1075 8.4475 -2 9 C-2.99 8.67 -3.98 8.34 -5 8 C-4.34 7.401875 -3.68 6.80375 -3 6.1875 C-0.6626154 4.12498166 -0.6626154 4.12498166 -1 1 C-0.67 0.67 -0.34 0.34 0 0 Z " fill="#3F8118" transform="translate(77,238)"/>
<path d="M0 0 C0.99 0.33 1.98 0.66 3 1 C1.50902342 4.7952131 -0.75700849 6.61042731 -4 9 C-4.8125 7.3125 -4.8125 7.3125 -5 5 C-2.5625 2.25 -2.5625 2.25 0 0 Z " fill="#3C7F14" transform="translate(149,238)"/>
<path d="M0 0 C0.598125 0.226875 1.19625 0.45375 1.8125 0.6875 C1.8125 1.3475 1.8125 2.0075 1.8125 2.6875 C2.4725 3.0175 3.1325 3.3475 3.8125 3.6875 C3.4825 4.3475 3.1525 5.0075 2.8125 5.6875 C1.1625 5.3575 -0.4875 5.0275 -2.1875 4.6875 C-2.1875 5.6775 -2.1875 6.6675 -2.1875 7.6875 C-3.1775 7.6875 -4.1675 7.6875 -5.1875 7.6875 C-5.41803497 4.84423536 -5.54653101 3.22604651 -3.9375 0.8125 C-2.1875 -0.3125 -2.1875 -0.3125 0 0 Z " fill="#4FAE18" transform="translate(103.1875,109.3125)"/>
<path d="M0 0 C2.31 1.98 4.62 3.96 7 6 C4.50907189 7.24546405 3.58919267 6.7767578 1 6 C0.34 7.32 -0.32 8.64 -1 10 C-2.32 9.34 -3.64 8.68 -5 8 C-4.0409375 7.690625 -4.0409375 7.690625 -3.0625 7.375 C-0.65074923 6.10461791 -0.65074923 6.10461791 -0.25 2.875 C-0.1675 1.92625 -0.085 0.9775 0 0 Z " fill="#5EB31D" transform="translate(100,79)"/>
<path d="M0 0 C1.32 0.33 2.64 0.66 4 1 C1.85922021 3.56715917 0.69640696 4.88098889 -2.65722656 5.45410156 C-3.64174805 5.4331543 -4.62626953 5.41220703 -5.640625 5.390625 C-6.71054688 5.37773437 -7.78046875 5.36484375 -8.8828125 5.3515625 C-9.99398437 5.31804687 -11.10515625 5.28453125 -12.25 5.25 C-13.37664062 5.23195312 -14.50328125 5.21390625 -15.6640625 5.1953125 C-18.44356896 5.14820222 -21.2213534 5.08243361 -24 5 C-24 4.67 -24 4.34 -24 4 C-16.08 3.67 -8.16 3.34 0 3 C0 2.01 0 1.02 0 0 Z " fill="#6BB92A" transform="translate(136,158)"/>
<path d="M0 0 C0.33 0 0.66 0 1 0 C1.125 2.875 1.125 2.875 1 6 C-1 8 -1 8 -3.33837891 8.22705078 C-4.29147949 8.21657715 -5.24458008 8.20610352 -6.2265625 8.1953125 C-7.7734375 8.18564453 -7.7734375 8.18564453 -9.3515625 8.17578125 C-10.43179688 8.15902344 -11.51203125 8.14226562 -12.625 8.125 C-13.71296875 8.11597656 -14.8009375 8.10695312 -15.921875 8.09765625 C-18.61480152 8.07403409 -21.30729255 8.04109556 -24 8 C-24 7.67 -24 7.34 -24 7 C-23.41508789 6.97494385 -22.83017578 6.9498877 -22.22753906 6.92407227 C-19.56815529 6.80777038 -16.90909597 6.68519933 -14.25 6.5625 C-12.86941406 6.50352539 -12.86941406 6.50352539 -11.4609375 6.44335938 C-10.57148438 6.40146484 -9.68203125 6.35957031 -8.765625 6.31640625 C-7.94868164 6.27974854 -7.13173828 6.24309082 -6.29003906 6.20532227 C-4.0965577 6.00865725 -2.11603587 5.59699406 0 5 C0 3.35 0 1.7 0 0 Z " fill="#80C435" transform="translate(139,125)"/>
<path d="M0 0 C7.50769231 -0.36923077 7.50769231 -0.36923077 10 1.5 C10.495 2.2425 10.495 2.2425 11 3 C10.01 3.495 10.01 3.495 9 4 C8.34786708 6.02463255 8.34786708 6.02463255 8 8 C8 7.34 8 6.68 8 6 C7.01 6 6.02 6 5 6 C5 4.68 5 3.36 5 2 C3.68 2 2.36 2 1 2 C0.67 2.66 0.34 3.32 0 4 C-0.66 4 -1.32 4 -2 4 C-1.34 2.68 -0.68 1.36 0 0 Z " fill="#68B41F" transform="translate(193,48)"/>
<path d="M0 0 C0.66 0 1.32 0 2 0 C1.67 1.98 1.34 3.96 1 6 C-1.475 5.01 -1.475 5.01 -4 4 C-4.99 5.485 -4.99 5.485 -6 7 C-7.32 6.34 -8.64 5.68 -10 5 C-4.58461538 0.93846154 -4.58461538 0.93846154 -1.625 1.25 C-1.08875 1.4975 -0.5525 1.745 0 2 C0 1.34 0 0.68 0 0 Z " fill="#8BB373" transform="translate(105,243)"/>
<path d="M0 0 C2.64 0 5.28 0 8 0 C8 1.32 8 2.64 8 4 C6.02 4 4.04 4 2 4 C3.32 4.66 4.64 5.32 6 6 C4.33388095 6.042721 2.66617115 6.04063832 1 6 C0 5 0 5 -0.0625 2.4375 C-0.041875 1.633125 -0.02125 0.82875 0 0 Z " fill="#55B019" transform="translate(102,157)"/>
<path d="M0 0 C0.66 0 1.32 0 2 0 C2 1.65 2 3.3 2 5 C4.475 5.99 4.475 5.99 7 7 C7 7.99 7 8.98 7 10 C4.27294446 10.22111261 2.53579338 10.30361625 0.125 8.9375 C-1.64782183 5.88430685 -0.69235306 3.33588292 0 0 Z " fill="#45AD16" transform="translate(111,132)"/>
<path d="M0 0 C1.65 0 3.3 0 5 0 C4.67 0.99 4.34 1.98 4 3 C3.0409375 3.2165625 3.0409375 3.2165625 2.0625 3.4375 C-0.20311706 3.80104993 -0.20311706 3.80104993 -1.25 6.0625 C-1.4975 6.701875 -1.745 7.34125 -2 8 C-2.66 7.34 -3.32 6.68 -4 6 C-4 4.68 -4 3.36 -4 2 C-2.68 2 -1.36 2 0 2 C0 1.34 0 0.68 0 0 Z " fill="#49B00A" transform="translate(110,94)"/>
<path d="M0 0 C0.66 0.33 1.32 0.66 2 1 C1.67 1.66 1.34 2.32 1 3 C0.01 3 -0.98 3 -2 3 C-2.12375 3.78375 -2.2475 4.5675 -2.375 5.375 C-3 8 -3 8 -5 10 C-5 9.34 -5 8.68 -5 8 C-6.32 7.67 -7.64 7.34 -9 7 C-6.03 4.69 -3.06 2.38 0 0 Z " fill="#76B51C" transform="translate(165,32)"/>
<path d="M0 0 C0.33 0 0.66 0 1 0 C1 2.64 1 5.28 1 8 C1.99 7.67 2.98 7.34 4 7 C4.33 6.01 4.66 5.02 5 4 C5.66 4 6.32 4 7 4 C7.68707555 6.49064888 8 8.37886292 8 11 C2.25 10.125 2.25 10.125 0 9 C0 6.03 0 3.06 0 0 Z " fill="#57AD14" transform="translate(141,170)"/>
<path d="M0 0 C1.32 0.33 2.64 0.66 4 1 C3.625 3.4375 3.625 3.4375 3 6 C2.01 6.495 2.01 6.495 1 7 C-1.625 6.0625 -1.625 6.0625 -4 5 C-2.68 3.35 -1.36 1.7 0 0 Z " fill="#8BB374" transform="translate(56,242)"/>
<path d="M0 0 C1.32 0.33 2.64 0.66 4 1 C3.67 2.65 3.34 4.3 3 6 C0.69 6 -1.62 6 -4 6 C-4 5.34 -4 4.68 -4 4 C-2.68 3.67 -1.36 3.34 0 3 C0 2.01 0 1.02 0 0 Z " fill="#4BAE10" transform="translate(203,66)"/>
<path d="M0 0 C0.928125 0.2784375 0.928125 0.2784375 1.875 0.5625 C4.04160178 1.23686176 4.04160178 1.23686176 6 0 C5.875 1.75 5.875 1.75 5 4 C1.9375 6.25 1.9375 6.25 -1 8 C-0.67 5.36 -0.34 2.72 0 0 Z " fill="#5BB628" transform="translate(170,34)"/>
<path d="M0 0 C5.94 0 11.88 0 18 0 C18 0.33 18 0.66 18 1 C17.10796875 1.03738281 16.2159375 1.07476562 15.296875 1.11328125 C14.12640625 1.17902344 12.9559375 1.24476562 11.75 1.3125 C10.58984375 1.37050781 9.4296875 1.42851563 8.234375 1.48828125 C4.8454444 2.02445264 3.51156951 2.75917307 1 5 C0.01 5.495 0.01 5.495 -1 6 C-0.67 4.02 -0.34 2.04 0 0 Z " fill="#48AA08" transform="translate(168,91)"/>
<path d="M0 0 C2.62901288 1.52206009 4.84365964 2.84365964 7 5 C6.625 7.125 6.625 7.125 6 9 C6 8.34 6 7.68 6 7 C4.02 7 2.04 7 0 7 C0 4.69 0 2.38 0 0 Z " fill="#55AC0F" transform="translate(132,67)"/>
<path d="M0 0 C1.47906892 -0.02689216 2.95827483 -0.04634621 4.4375 -0.0625 C5.26121094 -0.07410156 6.08492188 -0.08570313 6.93359375 -0.09765625 C9 0 9 0 10 1 C10.04063832 2.66617115 10.042721 4.33388095 10 6 C9.01 5.67 8.02 5.34 7 5 C7 4.34 7 3.68 7 3 C4.69 2.67 2.38 2.34 0 2 C0 1.34 0 0.68 0 0 Z " fill="#51AC0F" transform="translate(101,49)"/>
<path d="M0 0 C2.0625 0.4375 2.0625 0.4375 4 1 C3.67 1.598125 3.34 2.19625 3 2.8125 C1.79212012 5.05386471 1.79212012 5.05386471 2 8 C1.01 8 0.02 8 -1 8 C-1 7.01 -1 6.02 -1 5 C-1.66 5 -2.32 5 -3 5 C-1.125 1.125 -1.125 1.125 0 0 Z " fill="#72A354" transform="translate(154,243)"/>
<path d="M0 0 C3.3 0 6.6 0 10 0 C10 0.99 10 1.98 10 3 C6.7 3 3.4 3 0 3 C0 2.01 0 1.02 0 0 Z " fill="#069701" transform="translate(209,216)"/>
<path d="M0 0 C0 0.33 0 0.66 0 1 C-1.98 1.33 -3.96 1.66 -6 2 C-6 2.99 -6 3.98 -6 5 C-3.03 5.495 -3.03 5.495 0 6 C0 6.33 0 6.66 0 7 C-6.625 7.25 -6.625 7.25 -10 5 C-9.625 3.0625 -9.625 3.0625 -9 1 C-6.04335481 -0.4783226 -3.25770263 -0.06032783 0 0 Z " fill="#84C451" transform="translate(137,201)"/>
<path d="M0 0 C0.99 0.495 0.99 0.495 2 1 C2.03738281 2.19238281 2.07476562 3.38476562 2.11328125 4.61328125 C2.17894032 6.179719 2.24538768 7.74612384 2.3125 9.3125 C2.33505859 10.09818359 2.35761719 10.88386719 2.38085938 11.69335938 C2.41630859 12.45068359 2.45175781 13.20800781 2.48828125 13.98828125 C2.51446533 14.68477783 2.54064941 15.38127441 2.56762695 16.09887695 C3.11223768 18.49350359 4.15829162 19.43272547 6 21 C4.35 21 2.7 21 1 21 C0.67 14.07 0.34 7.14 0 0 Z " fill="#69B61E" transform="translate(184,41)"/>
<path d="M0 0 C1.65 0.33 3.3 0.66 5 1 C5 1.99 5 2.98 5 4 C4.34 4 3.68 4 3 4 C3 4.66 3 5.32 3 6 C1.35 6 -0.3 6 -2 6 C-2 5.01 -2 4.02 -2 3 C-1.34 3.33 -0.68 3.66 0 4 C0 2.68 0 1.36 0 0 Z " fill="#47AE0B" transform="translate(196,53)"/>
<path d="M0 0 C1.21236328 0.04060547 1.21236328 0.04060547 2.44921875 0.08203125 C3.06410156 0.11683594 3.67898437 0.15164062 4.3125 0.1875 C4.3125 0.5175 4.3125 0.8475 4.3125 1.1875 C1.6725 1.1875 -0.9675 1.1875 -3.6875 1.1875 C-3.6875 2.1775 -3.6875 3.1675 -3.6875 4.1875 C-2.3675 4.5175 -1.0475 4.8475 0.3125 5.1875 C-1.6675 5.1875 -3.6475 5.1875 -5.6875 5.1875 C-6.3475 6.5075 -7.0075 7.8275 -7.6875 9.1875 C-8.05369718 3.69454225 -8.05369718 3.69454225 -6.46875 1.5 C-4.16706546 -0.19597808 -2.82643251 -0.12288837 0 0 Z " fill="#78B71B" transform="translate(104.6875,47.8125)"/>
<path d="M0 0 C2.125 0.375 2.125 0.375 4 1 C4 1.99 4 2.98 4 4 C2.35 4.33 0.7 4.66 -1 5 C-1.33 6.32 -1.66 7.64 -2 9 C-2.125 5.625 -2.125 5.625 -2 2 C-1.34 1.34 -0.68 0.68 0 0 Z " fill="#5BAD1B" transform="translate(86,92)"/>
<path d="M0 0 C4.43895554 -0.35991531 4.43895554 -0.35991531 6.65625 1.0625 C8.71722894 4.03414405 8.28541354 6.62997456 8.1875 10.1875 C8.16042969 11.45980469 8.13335937 12.73210937 8.10546875 14.04296875 C8.07066406 15.01878906 8.03585938 15.99460937 8 17 C7.67 17 7.34 17 7 17 C6.95101562 16.14535156 6.90203125 15.29070312 6.8515625 14.41015625 C6.77679688 13.30542969 6.70203125 12.20070313 6.625 11.0625 C6.52058594 9.40927734 6.52058594 9.40927734 6.4140625 7.72265625 C6.27742187 6.82417969 6.14078125 5.92570312 6 5 C5.34 4.67 4.68 4.34 4 4 C4 3.01 4 2.02 4 1 C2.68 0.67 1.36 0.34 0 0 Z " fill="#85C43A" transform="translate(148,80)"/>
<path d="M0 0 C0 1.32 0 2.64 0 4 C-1.98 4 -3.96 4 -6 4 C-6.33 3.01 -6.66 2.02 -7 1 C-4.53721199 -0.231394 -2.7204945 -0.07159196 0 0 Z " fill="#F0F8E6" transform="translate(195,203)"/>
<path d="M0 0 C0.33 0 0.66 0 1 0 C1.33 2.64 1.66 5.28 2 8 C3.98 7.67 5.96 7.34 8 7 C8 7.99 8 8.98 8 10 C5.36 10 2.72 10 0 10 C0 6.7 0 3.4 0 0 Z " fill="#3EAA13" transform="translate(102,172)"/>
<path d="M0 0 C3.5625 0.3125 3.5625 0.3125 5.5 1.5 C6.89101983 3.87291618 6.78167317 5.60936424 6.5625 8.3125 C6.2325 6.9925 5.9025 5.6725 5.5625 4.3125 C4.2425 4.3125 2.9225 4.3125 1.5625 4.3125 C1.5625 3.3225 1.5625 2.3325 1.5625 1.3125 C-0.7475 1.6425 -3.0575 1.9725 -5.4375 2.3125 C-3.4375 0.3125 -3.4375 0.3125 0 0 Z " fill="#65B115" transform="translate(211.4375,88.6875)"/>
<path d="M0 0 C2.375 -0.125 2.375 -0.125 5 0 C7 2 7 2 7 5 C2.25 4.125 2.25 4.125 0 3 C0 2.01 0 1.02 0 0 Z " fill="#4FAD11" transform="translate(94,67)"/>
<path d="M0 0 C2.31 0.33 4.62 0.66 7 1 C7 1.99 7 2.98 7 4 C5.68 4 4.36 4 3 4 C2.67 4.66 2.34 5.32 2 6 C1.34 5.67 0.68 5.34 0 5 C0 3.35 0 1.7 0 0 Z " fill="#4AAB0F" transform="translate(98,52)"/>
<path d="M0 0 C0 1.32 0 2.64 0 4 C-3.21232125 5.07077375 -5.63937807 5 -9 5 C-9 4.34 -9 3.68 -9 3 C-5.63316085 0.56839395 -4.26649636 0 0 0 Z " fill="#47AC0D" transform="translate(160,40)"/>
<path d="M0 0 C0.28875 0.61875 0.5775 1.2375 0.875 1.875 C1.93720042 4.13325765 1.93720042 4.13325765 4 6 C4 6.66 4 7.32 4 8 C2.35 7.67 0.7 7.34 -1 7 C-1 5.68 -1 4.36 -1 3 C-1.99 2.67 -2.98 2.34 -4 2 C-2.68 1.34 -1.36 0.68 0 0 Z " fill="#367C0D" transform="translate(240,246)"/>
<path d="M0 0 C2.97 0 5.94 0 9 0 C9.33 0.66 9.66 1.32 10 2 C9.67 2.66 9.34 3.32 9 4 C5.625 3.6875 5.625 3.6875 2 3 C1.34 2.01 0.68 1.02 0 0 Z " fill="#65B736" transform="translate(86,91)"/>
<path d="M0 0 C1.98 0 3.96 0 6 0 C6 0.66 6 1.32 6 2 C4.68 2.33 3.36 2.66 2 3 C2 3.99 2 4.98 2 6 C1.01 5.67 0.02 5.34 -1 5 C-0.67 3.35 -0.34 1.7 0 0 Z " fill="#63B11A" transform="translate(92,77)"/>
<path d="M0 0 C0.66 0.33 1.32 0.66 2 1 C2 1.66 2 2.32 2 3 C0.02 3.99 0.02 3.99 -2 5 C-3.65 3.35 -5.3 1.7 -7 0 C-3.83299069 -1.05566977 -3.03571759 -0.97926374 0 0 Z " fill="#63B623" transform="translate(128,71)"/>
<path d="M0 0 C1.32 0 2.64 0 4 0 C4 3.3 4 6.6 4 10 C3.34 10 2.68 10 2 10 C2 7.36 2 4.72 2 2 C1.01 1.67 0.02 1.34 -1 1 C-0.67 0.67 -0.34 0.34 0 0 Z " fill="#6BBA2F" transform="translate(162,198)"/>
<path d="M0 0 C1.33332095 2.6666419 0.67102033 4.16680303 0 7 C-2.31 7.66 -4.62 8.32 -7 9 C-6.02180976 7.68677212 -5.0424189 6.37443848 -4.0625 5.0625 C-3.51722656 4.33160156 -2.97195312 3.60070312 -2.41015625 2.84765625 C-1 1 -1 1 0 0 Z " fill="#64AF20" transform="translate(195,80)"/>
<path d="M0 0 C1.98 0.495 1.98 0.495 4 1 C3.67 2.32 3.34 3.64 3 5 C1.68 5 0.36 5 -1 5 C-0.67 3.35 -0.34 1.7 0 0 Z " fill="#468520" transform="translate(223,232)"/>
<path d="M0 0 C0.99 0.66 1.98 1.32 3 2 C2.67 2.99 2.34 3.98 2 5 C2 4.34 2 3.68 2 3 C1.01 3.66 0.02 4.32 -1 5 C-1.99 4.67 -2.98 4.34 -4 4 C-2.68 2.68 -1.36 1.36 0 0 Z M-7 4 C-6.01 4.33 -5.02 4.66 -4 5 C-4 5.66 -4 6.32 -4 7 C-5.32 6.34 -6.64 5.68 -8 5 C-7.67 4.67 -7.34 4.34 -7 4 Z " fill="#49AA0A" transform="translate(198,83)"/>
<path d="M0 0 C0.99 0.33 1.98 0.66 3 1 C3.25 3.3125 3.25 3.3125 3 6 C0.76261752 8.40311451 -0.46340904 8.96341425 -3.75 9.1875 C-4.4925 9.125625 -5.235 9.06375 -6 9 C-5.38125 8.71125 -4.7625 8.4225 -4.125 8.125 C-1.86674235 7.06279958 -1.86674235 7.06279958 0 5 C0.16687448 2.41645782 0.16687448 2.41645782 0 0 Z " fill="#6FBB2F" transform="translate(180,199)"/>
<path d="M0 0 C1.32 0 2.64 0 4 0 C4 1.65 4 3.3 4 5 C2.35 4.67 0.7 4.34 -1 4 C-0.67 2.68 -0.34 1.36 0 0 Z " fill="#46AF20" transform="translate(179,93)"/>
<path d="M0 0 C0 3.10551666 -0.5393715 4.35261084 -2 7 C-3.65 7 -5.3 7 -7 7 C-4.78071806 4.09197539 -3.07030857 2.04687238 0 0 Z " fill="#E7F0E1" transform="translate(47,232)"/>
<path d="M0 0 C0.66 0 1.32 0 2 0 C2 0.66 2 1.32 2 2 C3.32 1.67 4.64 1.34 6 1 C6 1.66 6 2.32 6 3 C2.5647952 5.29013653 1.014669 5.17842973 -3 5 C-1.625 2.5 -1.625 2.5 0 0 Z " fill="#47AB12" transform="translate(167,72)"/>
<path d="M0 0 C1.65 0.33 3.3 0.66 5 1 C4.67 1.99 4.34 2.98 4 4 C2.02 4 0.04 4 -2 4 C-1.34 2.68 -0.68 1.36 0 0 Z " fill="#45B10C" transform="translate(183,64)"/>
<path d="M0 0 C-0.66 1.32 -1.32 2.64 -2 4 C-4.31 3.67 -6.62 3.34 -9 3 C-6.38997624 -0.48003168 -4.1689578 -0.27793052 0 0 Z " fill="#4DB318" transform="translate(251,15)"/>
<path d="M0 0 C0.99 0 1.98 0 3 0 C2.39816251 2.02045442 1.72693904 4.02111039 1 6 C0.01 6.495 0.01 6.495 -1 7 C-1.625 4.625 -1.625 4.625 -2 2 C-1.34 1.34 -0.68 0.68 0 0 Z " fill="#42AF10" transform="translate(105,127)"/>
<path d="M0 0 C0.66 0 1.32 0 2 0 C2 1.65 2 3.3 2 5 C3.32 5.33 4.64 5.66 6 6 C4.02 6.99 4.02 6.99 2 8 C1.01 7.34 0.02 6.68 -1 6 C-0.67 4.02 -0.34 2.04 0 0 Z " fill="#4DAD0B" transform="translate(141,38)"/>
<path d="M0 0 C2.97 0 5.94 0 9 0 C9 0.33 9 0.66 9 1 C7.35 1 5.7 1 4 1 C3.67 2.65 3.34 4.3 3 6 C2.34 6 1.68 6 1 6 C0.67 4.02 0.34 2.04 0 0 Z " fill="#48AA09" transform="translate(50,15)"/>
<path d="M0 0 C1.65 1.65 3.3 3.3 5 5 C4.38125 5.12375 3.7625 5.2475 3.125 5.375 C0.80879168 5.87197356 0.80879168 5.87197356 -1 8 C-1.125 2.25 -1.125 2.25 0 0 Z " fill="#56AC21" transform="translate(56,211)"/>
<path d="M0 0 C0.99 0.33 1.98 0.66 3 1 C3 2.98 3 4.96 3 7 C2.01 7 1.02 7 0 7 C0 4.69 0 2.38 0 0 Z " fill="#74BE37" transform="translate(113,201)"/>
<path d="M0 0 C0 4.38968456 -2.12805101 5.76905739 -5 9 C-5.66 8.67 -6.32 8.34 -7 8 C-4.69 5.36 -2.38 2.72 0 0 Z " fill="#73BD3B" transform="translate(209,199)"/>
<path d="M0 0 C1.98 0 3.96 0 6 0 C6 0.99 6 1.98 6 3 C3.69 3 1.38 3 -1 3 C-0.67 2.01 -0.34 1.02 0 0 Z " fill="#F4FAEE" transform="translate(175,200)"/>
<path d="M0 0 C1.32 0.66 2.64 1.32 4 2 C3.01 3.485 3.01 3.485 2 5 C-1.125 5.1875 -1.125 5.1875 -4 5 C-4.33 4.34 -4.66 3.68 -5 3 C-3.68 3 -2.36 3 -1 3 C-0.67 2.01 -0.34 1.02 0 0 Z " fill="#66B722" transform="translate(101,113)"/>
<path d="M0 0 C2.31 0 4.62 0 7 0 C6.01 1.485 6.01 1.485 5 3 C1.375 3.1875 1.375 3.1875 -2 3 C-1.34 2.67 -0.68 2.34 0 2 C0 1.34 0 0.68 0 0 Z " fill="#88C63D" transform="translate(90,101)"/>
<path d="M0 0 C0.99 0 1.98 0 3 0 C3.125 3.375 3.125 3.375 3 7 C2.34 7.66 1.68 8.32 1 9 C1 7.35 1 5.7 1 4 C0.34 4 -0.32 4 -1 4 C-0.67 2.68 -0.34 1.36 0 0 Z " fill="#57B41A" transform="translate(54,17)"/>
<path d="M0 0 C0.99 0.33 1.98 0.66 3 1 C1.35 2.65 -0.3 4.3 -2 6 C-2.99 5.67 -3.98 5.34 -5 5 C-3.35 3.35 -1.7 1.7 0 0 Z " fill="#E3EDDD" transform="translate(159,244)"/>
<path d="M0 0 C1.99954746 -0.04254356 4.00041636 -0.04080783 6 0 C7 1 7 1 7.0625 4.0625 C7.041875 5.031875 7.02125 6.00125 7 7 C6.34 7 5.68 7 5 7 C4.9175 6.21625 4.835 5.4325 4.75 4.625 C4.27193661 1.85250896 4.27193661 1.85250896 1.9375 0.6875 C1.298125 0.460625 0.65875 0.23375 0 0 Z " fill="#6CBA31" transform="translate(117,201)"/>
<path d="M0 0 C0.99 0 1.98 0 3 0 C3 1.65 3 3.3 3 5 C1.35 5 -0.3 5 -2 5 C-1.34 3.35 -0.68 1.7 0 0 Z " fill="#4CAB0B" transform="translate(117,127)"/>
<path d="M0 0 C0.66 0.33 1.32 0.66 2 1 C1.0479279 2.00596297 0.08812654 3.00461563 -0.875 4 C-1.40867188 4.556875 -1.94234375 5.11375 -2.4921875 5.6875 C-4 7 -4 7 -6 7 C-4.60667426 3.63279613 -3.0210714 2.0140476 0 0 Z " fill="#D9E7CF" transform="translate(170,243)"/>
<path d="M0 0 C2.31 0.33 4.62 0.66 7 1 C6.67 1.66 6.34 2.32 6 3 C4.02 3 2.04 3 0 3 C0 2.01 0 1.02 0 0 Z " fill="#4DAA21" transform="translate(108,126)"/>
<path d="M0 0 C0.66 0.33 1.32 0.66 2 1 C2 2.98 2 4.96 2 7 C1.01 6.67 0.02 6.34 -1 6 C-1.33 4.35 -1.66 2.7 -2 1 C-1.34 0.67 -0.68 0.34 0 0 Z " fill="#4CAC06" transform="translate(98,78)"/>
<path d="M0 0 C0.66 0 1.32 0 2 0 C1.67 1.98 1.34 3.96 1 6 C0.01 6 -0.98 6 -2 6 C-1.125 1.125 -1.125 1.125 0 0 Z " fill="#DFEAD8" transform="translate(244,244)"/>
<path d="M0 0 C0.66 0 1.32 0 2 0 C1.67 1.98 1.34 3.96 1 6 C0.01 6 -0.98 6 -2 6 C-1.125 1.125 -1.125 1.125 0 0 Z " fill="#DEE9D6" transform="translate(120,244)"/>
<path d="M0 0 C0 1.32 0 2.64 0 4 C-1.65 4 -3.3 4 -5 4 C-5 3.01 -5 2.02 -5 1 C-2 0 -2 0 0 0 Z " fill="#54AE09" transform="translate(137,149)"/>
<path d="M0 0 C0.66 0 1.32 0 2 0 C0.125 5.75 0.125 5.75 -1 8 C-1.66 8 -2.32 8 -3 8 C-2.45276317 4.62537285 -1.9451 2.91765 0 0 Z " fill="#81BC27" transform="translate(104,125)"/>
<path d="M0 0 C1.65 0 3.3 0 5 0 C4.01 1.485 4.01 1.485 3 3 C1.0546875 3.29296875 1.0546875 3.29296875 -1.125 3.1875 C-2.40375 3.125625 -3.6825 3.06375 -5 3 C-5 2.67 -5 2.34 -5 2 C-3.35 2 -1.7 2 0 2 C0 1.34 0 0.68 0 0 Z " fill="#6BB929" transform="translate(199,57)"/>
<path d="M0 0 C2.64 0 5.28 0 8 0 C8 0.66 8 1.32 8 2 C5.6875 2.6875 5.6875 2.6875 3 3 C1.1875 1.5625 1.1875 1.5625 0 0 Z " fill="#67B620" transform="translate(240,20)"/>
</svg>
